<svg width="29" height="22" viewBox="0 0 29 22" fill="none" xmlns="http://www.w3.org/2000/svg">
<path d="M14.2846 6.40771C14.7486 6.40771 15.1935 6.27628 15.5216 6.04233C15.8496 5.80838 16.0339 5.49108 16.0339 5.16022C16.0339 4.82937 15.8496 4.51207 15.5216 4.27812C15.1935 4.04417 14.7486 3.91274 14.2846 3.91274C13.8206 3.91274 13.3757 4.04417 13.0476 4.27812C12.7196 4.51207 12.5353 4.82937 12.5353 5.16022C12.5353 5.49108 12.7196 5.80838 13.0476 6.04233C13.3757 6.27628 13.8206 6.40771 14.2846 6.40771ZM16.0013 0.511254C15.5161 0.230045 14.9099 0.0765381 14.2846 0.0765381C13.6593 0.0765381 13.0531 0.230045 12.5679 0.511254L0.900937 7.27263C-0.517199 8.09764 0.299162 9.73434 2.12781 9.73434H2.62229V16.7203C1.23681 17.2243 0.289832 18.2505 0.289832 19.4365V20.5459C0.289832 20.7665 0.412703 20.978 0.631413 21.134C0.850124 21.2899 1.14676 21.3776 1.45606 21.3776H27.1131C27.4224 21.3776 27.7191 21.2899 27.9378 21.134C28.1565 20.978 28.2794 20.7665 28.2794 20.5459V19.4365C28.2794 18.2522 27.3324 17.2243 25.9469 16.7203V9.73434H26.4414C28.27 9.73434 29.0864 8.09598 27.6659 7.27263L16.0036 0.509591L16.0013 0.511254ZM14.042 1.80199C14.1113 1.76202 14.1978 1.74021 14.2869 1.74021C14.3761 1.74021 14.4625 1.76202 14.5318 1.80199L25.3428 8.07103H3.22407L14.042 1.80032V1.80199ZM23.6144 16.3876H21.282V9.73434H23.6144V16.3876ZM18.9495 16.3876H15.4508V9.73434H18.9495V16.3876ZM13.1184 16.3876H9.61968V9.73434H13.1184V16.3876ZM24.004 18.0509C25.0769 18.0509 25.9469 18.6713 25.9469 19.4365V19.7142H2.62229V19.4365C2.62229 18.6713 3.4923 18.0509 4.56523 18.0509H24.004ZM7.28722 16.3876H4.95475V9.73434H7.28722V16.3876Z" fill="white"/>
</svg>
