<svg width="35" height="29" viewBox="0 0 35 29" fill="none" xmlns="http://www.w3.org/2000/svg">
<path d="M7.09436 15.1397C7.13679 15.7656 7.76823 16.2437 8.50472 16.2077C9.2412 16.1716 9.80384 15.635 9.76141 15.0091C9.71897 14.3832 9.08753 13.9051 8.35104 13.9412C7.61456 13.9772 7.05192 14.5138 7.09436 15.1397Z" fill="white"/>
<path d="M15.0958 14.7479C14.9964 13.2812 14.2316 11.9044 12.9622 10.907C12.7018 10.7026 12.3564 10.5945 12.0022 10.6065C11.648 10.6186 11.3138 10.7497 11.0734 10.971C10.8329 11.1924 10.7057 11.4859 10.7199 11.7869C10.734 12.0879 10.8883 12.3718 11.1488 12.5762C11.8858 13.1858 12.3275 14.008 12.3866 14.8806C12.4458 15.7532 12.1182 16.613 11.4684 17.2906C11.2373 17.519 11.1224 17.8161 11.149 18.1165C11.1757 18.4169 11.3416 18.6961 11.6105 18.8925C11.8793 19.0889 12.2289 19.1865 12.5824 19.1639C12.9359 19.1412 13.2643 19.0002 13.4955 18.7718C14.6216 17.6571 15.1953 16.2147 15.0958 14.7479ZM21.7634 14.4215C21.6696 13.0528 21.2525 11.7141 20.537 10.4853C19.8216 9.2565 18.8224 8.16262 17.5991 7.26886C17.4634 7.17173 17.3064 7.09827 17.1373 7.05268C16.9682 7.00708 16.7901 6.99025 16.6133 7.00313C16.4366 7.01601 16.2645 7.05835 16.107 7.12775C15.9494 7.19714 15.8095 7.29222 15.6952 7.40757C15.4644 7.64051 15.3519 7.94184 15.3825 8.24526C15.3977 8.3955 15.4475 8.54174 15.5292 8.67561C15.6108 8.80948 15.7227 8.92838 15.8584 9.02551C16.812 9.72127 17.5908 10.5733 18.1482 11.5306C18.7055 12.4879 19.03 13.5309 19.1023 14.5972C19.1746 15.6636 18.9932 16.7313 18.5689 17.7367C18.1446 18.7421 17.4862 19.6645 16.6329 20.4487C16.5141 20.5598 16.4223 20.6899 16.363 20.8314C16.3037 20.9729 16.278 21.1229 16.2874 21.2729C16.3034 21.4943 16.3954 21.7069 16.5521 21.8844C16.7087 22.0618 16.923 22.1964 17.1687 22.2715C17.4143 22.3466 17.6804 22.3588 17.9342 22.3067C18.1879 22.2547 18.4182 22.1406 18.5964 21.9785C19.697 20.9656 20.545 19.7739 21.0893 18.4752C21.6335 17.1764 21.8629 15.7975 21.7634 14.4215Z" fill="white"/>
<path d="M23.9366 25.3669C27.0932 22.2452 28.7014 18.2045 28.4228 14.0954C28.1442 9.98633 26.0005 6.12936 22.4429 3.33642C22.1797 3.15742 21.8466 3.06962 21.5104 3.09063C21.1742 3.11164 20.8598 3.2399 20.6302 3.44969C20.4006 3.65948 20.2729 3.93528 20.2726 4.22176C20.2723 4.50825 20.3995 4.78423 20.6287 4.99434C23.6849 7.38888 25.5269 10.6988 25.766 14.2255C26.0051 17.7523 24.6226 21.22 21.9103 23.897C21.6863 24.1188 21.5715 24.4054 21.5899 24.6973C21.601 24.8499 21.6482 24.999 21.7287 25.1358C21.8093 25.2725 21.9215 25.394 22.0587 25.493C22.3278 25.6871 22.6764 25.7828 23.0282 25.7592C23.3801 25.7356 23.7067 25.5945 23.9366 25.3669Z" fill="white"/>
</svg>
