<svg width="40" height="40" viewBox="0 0 40 40" fill="none" xmlns="http://www.w3.org/2000/svg">
<path opacity="0.974" fill-rule="evenodd" clip-rule="evenodd" d="M18.7899 1.21061C21.3817 1.00829 22.8401 2.19319 23.1649 4.76529C22.7881 7.35641 21.3037 8.50225 18.7118 8.20279C16.5315 7.42712 15.6852 5.90368 16.1727 3.63248C16.6374 2.37314 17.5098 1.56585 18.7899 1.21061Z" fill="#133769"/>
<path opacity="0.965" fill-rule="evenodd" clip-rule="evenodd" d="M32.1478 1.21113C34.8798 0.955493 36.8459 2.04924 38.0462 4.49238C38.9167 7.19827 38.2266 9.39878 35.9759 11.0939C33.4045 12.46 31.0737 12.1345 28.9837 10.1174C27.6011 8.3598 27.3147 6.4327 28.1244 4.33613C28.9697 2.64523 30.3108 1.60356 32.1478 1.21113ZM32.8509 2.85175C33.1626 2.78265 33.384 2.88682 33.515 3.16425C33.554 4.12744 33.5671 5.09098 33.554 6.05488C34.518 6.04187 35.4815 6.05488 36.4447 6.09394C36.7798 6.29165 36.8449 6.56509 36.64 6.91425C36.5814 6.96314 36.5162 7.0022 36.4447 7.03144C35.4815 7.07049 34.518 7.08351 33.554 7.0705C33.5671 8.03441 33.554 8.99792 33.515 9.96113C33.2101 10.3755 32.8976 10.3755 32.5775 9.96113C32.5384 8.99792 32.5254 8.03441 32.5384 7.0705C31.6005 7.08351 30.663 7.07049 29.7259 7.03144C29.2374 6.75186 29.2114 6.43936 29.6478 6.09394C30.611 6.05488 31.5745 6.04187 32.5384 6.05488C32.5254 5.09098 32.5384 4.12744 32.5775 3.16425C32.6314 3.0197 32.7225 2.91553 32.8509 2.85175Z" fill="#890101"/>
<path opacity="0.979" fill-rule="evenodd" clip-rule="evenodd" d="M18.6328 10.2736C22.0236 10.0481 24.5887 11.3762 26.3281 14.2579C26.4577 14.4774 26.5488 14.7118 26.6016 14.9611C25.4993 16.4457 25.2909 18.0472 25.9766 19.7658C25.3053 20.1718 24.5891 20.4713 23.8281 20.6642C22.7418 18.4738 20.984 17.5493 18.5547 17.8908C17.0397 18.3256 15.9459 19.2501 15.2734 20.6642C14.6039 20.4791 13.9659 20.2187 13.3594 19.8829C14.0495 18.0363 13.776 16.3436 12.5391 14.8048C13.7932 12.2485 15.8245 10.7381 18.6328 10.2736Z" fill="#133769"/>
<path opacity="0.973" fill-rule="evenodd" clip-rule="evenodd" d="M8.94531 14.3359C11.5945 14.5502 12.8316 15.9825 12.6562 18.6328C12.198 20.4318 11.0391 21.3953 9.17969 21.5234C6.98999 21.3129 5.79208 20.115 5.58594 17.9297C5.75084 15.8236 6.87063 14.6256 8.94531 14.3359Z" fill="#133769"/>
<path opacity="0.975" fill-rule="evenodd" clip-rule="evenodd" d="M29.8828 14.3359C31.4392 14.3391 32.5981 15.0162 33.3594 16.3672C34.0655 18.2179 33.6358 19.7413 32.0703 20.9375C30.3106 21.8487 28.7351 21.6014 27.3438 20.1953C26.3542 18.6849 26.3542 17.1745 27.3438 15.6641C28.0296 14.8981 28.8759 14.4554 29.8828 14.3359Z" fill="#890101"/>
<path opacity="0.974" fill-rule="evenodd" clip-rule="evenodd" d="M19.102 18.7889C21.154 18.7009 22.4691 19.6384 23.0473 21.6014C23.3309 23.417 22.6669 24.7582 21.0551 25.6248C19.2393 26.2682 17.7419 25.8385 16.563 24.3357C15.5503 22.3302 15.928 20.6505 17.6958 19.2967C18.1484 19.0549 18.6172 18.8857 19.102 18.7889Z" fill="#890101"/>
<path opacity="0.984" fill-rule="evenodd" clip-rule="evenodd" d="M8.16484 23.4761C11.657 23.2167 14.2612 24.5968 15.9773 27.6167C13.2201 28.9684 11.5535 31.1559 10.9773 34.1792C8.47366 34.4822 6.02576 34.2348 3.63359 33.437C1.51687 32.5859 0.904883 31.0884 1.79765 28.9449C2.82864 25.8431 4.95104 24.0202 8.16484 23.4761Z" fill="#133769"/>
<path opacity="0.983" fill-rule="evenodd" clip-rule="evenodd" d="M29.1016 23.4764C32.9166 23.2279 35.638 24.8164 37.2656 28.242C37.7019 29.323 37.8581 30.4428 37.7344 31.6014C37.3177 32.5124 36.6276 33.1244 35.6641 33.4373C33.22 34.2418 30.72 34.4892 28.1641 34.1795C27.5445 31.2567 25.9299 29.0822 23.3203 27.6561C24.5384 25.2886 26.4655 23.8954 29.1016 23.4764Z" fill="#890101"/>
<path opacity="0.985" fill-rule="evenodd" clip-rule="evenodd" d="M18.5555 27.9302C22.2127 27.6811 24.882 29.1655 26.5634 32.3833C27.0738 33.5293 27.2822 34.7272 27.1884 35.977C27.0355 36.4164 26.7881 36.794 26.4462 37.1098C24.8759 38.0888 23.1571 38.6096 21.2899 38.6723C18.8362 38.9148 16.4403 38.6543 14.1024 37.8911C13.3926 37.634 12.7806 37.2303 12.2665 36.6802C12.1409 36.455 12.0367 36.2206 11.954 35.977C11.9101 32.3246 13.5637 29.7856 16.9149 28.3598C17.4629 28.1806 18.0098 28.0373 18.5555 27.9302Z" fill="#890101"/>
</svg>
