<svg width="40" height="40" viewBox="0 0 40 40" fill="none" xmlns="http://www.w3.org/2000/svg">
<path opacity="0.928" fill-rule="evenodd" clip-rule="evenodd" d="M28.3203 1.99257C28.821 1.96778 29.3159 2.00684 29.8047 2.10976C28.8672 2.65663 27.9297 3.20351 26.9922 3.75038C26.901 3.84153 26.8099 3.93267 26.7187 4.02382C26.6666 5.11757 26.6666 6.21132 26.7187 7.30507C27.6284 7.99374 28.605 8.56671 29.6484 9.02382C29.8459 9.00327 30.0282 8.93819 30.1953 8.82851C31.0159 8.32702 31.8492 7.84523 32.6953 7.38319C32.7634 7.53677 32.7504 7.69302 32.6562 7.85194C31.6541 9.64851 30.1307 10.3907 28.0859 10.0785C27.3856 9.94085 26.7477 9.66741 26.1719 9.25819C25.6343 9.53358 25.1004 9.81999 24.5703 10.1176C24.2083 9.34171 23.7655 8.61257 23.2422 7.93007C23.2795 7.85366 23.3315 7.78859 23.3984 7.73476C23.8345 7.49723 24.2642 7.24984 24.6875 6.99257C24.9079 6.71655 24.947 6.41707 24.8047 6.09413C25.0174 3.89016 26.1893 2.52298 28.3203 1.99257Z" fill="#133769"/>
<path opacity="0.957" fill-rule="evenodd" clip-rule="evenodd" d="M19.3359 2.07031C20.0752 2.19001 20.8044 2.35928 21.5234 2.57812C21.7244 3.2382 21.9197 3.90226 22.1094 4.57031C22.6262 4.90474 23.1209 5.26933 23.5938 5.66406C23.6459 5.8724 23.6459 6.08073 23.5938 6.28906C23.1885 6.54378 22.7718 6.77816 22.3438 6.99219C19.2246 4.7713 16.1387 4.81036 13.0859 7.10938C11.1702 8.92352 10.3499 11.1501 10.625 13.7891C10.1756 14.0594 9.71992 14.3198 9.25781 14.5703C9.16031 14.5281 9.06914 14.476 8.98438 14.4141C8.82891 13.7214 8.72477 13.0183 8.67188 12.3047C8.19008 11.8229 7.70834 11.3412 7.22656 10.8594C7.44851 10.1543 7.6308 9.43813 7.77344 8.71094C8.43258 8.57867 9.08359 8.40945 9.72656 8.20312C10.0478 7.86008 10.3212 7.48246 10.5469 7.07031C10.8594 6.70573 11.1719 6.34115 11.4844 5.97656C11.4975 5.272 11.5366 4.56888 11.6016 3.86719C12.1959 3.49835 12.8079 3.15981 13.4375 2.85156C14.0512 3.21053 14.6762 3.54908 15.3125 3.86719C16.1966 3.64148 17.0951 3.49825 18.0078 3.4375C18.4664 2.99204 18.9091 2.5363 19.3359 2.07031Z" fill="#133769"/>
<path opacity="0.937" fill-rule="evenodd" clip-rule="evenodd" d="M17.3825 6.52352C20.1347 6.51169 22.1009 7.73566 23.2809 10.1954C23.7926 11.608 23.8447 13.0402 23.4372 14.4923C23.0638 14.1189 22.6601 13.7152 22.2262 13.2813C21.7358 12.971 21.215 12.7237 20.6637 12.5391C21.5108 10.6931 21.1201 9.16969 19.4918 7.96883C17.4881 7.03406 15.8865 7.4898 14.6872 9.33602C14.2177 10.4345 14.2308 11.5282 14.7262 12.6173C13.6029 12.8946 12.7304 13.5196 12.109 14.4923C11.2359 11.148 12.3167 8.66102 15.3512 7.03133C16.0209 6.78579 16.6979 6.61652 17.3825 6.52352Z" fill="#133769"/>
<path opacity="0.956" fill-rule="evenodd" clip-rule="evenodd" d="M17.3044 8.63248C19.1124 8.60451 19.9848 9.4899 19.9216 11.2887C19.5192 12.6295 18.6207 13.2154 17.2263 13.0465C15.9324 12.6109 15.3725 11.7125 15.5466 10.3512C15.8145 9.44521 16.4004 8.87232 17.3044 8.63248Z" fill="#133769"/>
<path opacity="0.957" fill-rule="evenodd" clip-rule="evenodd" d="M26.0537 10.5859C26.3073 10.6281 26.5026 10.7583 26.6397 10.9766C26.6994 11.5813 26.7776 12.1803 26.8741 12.7734C27.3467 13.2848 27.8025 13.8056 28.2412 14.3359C28.071 14.9909 27.8887 15.642 27.6944 16.2891C27.0176 16.5104 26.3405 16.7317 25.6631 16.9531C25.1954 17.6927 24.6616 18.3827 24.0616 19.0234C24.0484 19.754 24.0094 20.4831 23.9444 21.2109C23.35 21.5798 22.738 21.9183 22.1084 22.2266C21.463 21.8974 20.825 21.5588 20.1944 21.2109C19.4054 21.4466 18.598 21.5638 17.7725 21.5625C17.5987 21.6063 17.4424 21.6845 17.3037 21.7969C16.8909 22.2625 16.4352 22.6662 15.9366 23.0078C15.2766 22.8494 14.6255 22.6671 13.9834 22.4609C13.7856 21.8414 13.6033 21.2164 13.4366 20.5859C12.8897 20.1693 12.3428 19.7526 11.7959 19.3359C11.7222 19.1135 11.7612 18.9182 11.9131 18.75C12.3203 18.5074 12.7369 18.286 13.1631 18.0859C16.3815 20.346 19.5326 20.2548 22.6162 17.8125C24.4038 16.0437 25.133 13.9083 24.8037 11.4062C25.2098 11.1123 25.6265 10.8389 26.0537 10.5859Z" fill="#133769"/>
<path opacity="0.969" fill-rule="evenodd" clip-rule="evenodd" d="M15.1953 13.6327C15.4052 13.6199 15.6136 13.6329 15.8203 13.6718C17.0956 14.4494 18.3716 14.4494 19.6484 13.6718C20.9754 13.6514 21.9259 14.2374 22.5 15.4296C22.603 15.6566 22.6291 15.891 22.5781 16.1327C20.6162 18.4234 18.2074 19.0614 15.3516 18.0468C14.2551 17.5877 13.4217 16.8455 12.8516 15.8202C13.205 14.6334 13.9862 13.9043 15.1953 13.6327Z" fill="#133769"/>
<path opacity="0.936" fill-rule="evenodd" clip-rule="evenodd" d="M6.0546 14.8828C6.50244 14.8658 6.94515 14.9049 7.38273 14.9999C8.01382 15.2429 8.62577 15.5163 9.21866 15.8203C9.82069 15.5974 10.3936 15.311 10.9374 14.9609C11.2935 15.7509 11.7492 16.4801 12.3046 17.1484C11.783 17.4997 11.2491 17.8382 10.703 18.164C10.6134 18.8363 10.5353 19.5133 10.4687 20.1953C10.0866 21.437 9.29233 22.3094 8.08585 22.8124C6.57771 23.2741 5.17146 23.0657 3.8671 22.1874C2.42015 20.8392 2.06859 19.2376 2.81241 17.3828C3.45821 15.9739 4.53894 15.1406 6.0546 14.8828ZM6.28898 16.289C6.60237 16.2892 6.88883 16.3803 7.14835 16.5624C7.76749 16.8913 8.35343 17.2689 8.90616 17.6953C8.98101 18.6403 8.95499 19.5778 8.82804 20.5078C8.08007 21.0119 7.29882 21.4546 6.48429 21.8359C5.63061 21.4481 4.82332 20.9793 4.06241 20.4296C4.01033 19.5181 4.01033 18.6067 4.06241 17.6953C4.15356 17.6041 4.2447 17.513 4.33585 17.4218C4.9918 17.0421 5.64284 16.6646 6.28898 16.289Z" fill="#133769"/>
<path opacity="0.967" fill-rule="evenodd" clip-rule="evenodd" d="M32.4603 15.7424C35.4374 15.492 37.5858 16.6899 38.9056 19.3362C39.9293 22.3064 39.2132 24.7674 36.7572 26.719C35.0081 27.7724 33.1592 27.9808 31.2103 27.344C28.4274 26.0631 27.1644 23.8886 27.4212 20.8206C27.8163 18.5503 29.0794 16.9749 31.2103 16.094C31.6301 15.9503 32.0468 15.8331 32.4603 15.7424ZM33.2415 17.4612C33.8883 17.5805 34.1227 17.9711 33.9447 18.6331C34.9766 18.9795 35.4063 19.6826 35.2337 20.7424C34.9906 20.9942 34.7172 21.0333 34.4134 20.8596C34.2468 20.5759 34.1166 20.2764 34.0228 19.9612C33.5538 19.5502 33.0981 19.5762 32.6556 20.0393C32.4915 20.3647 32.5305 20.6642 32.7728 20.9378C33.2619 21.0793 33.7566 21.2095 34.2572 21.3284C35.2701 21.919 35.5695 22.7653 35.1556 23.8674C34.8844 24.3079 34.5068 24.6204 34.0228 24.8049C33.9584 25.0616 33.9194 25.322 33.9056 25.5862C33.5975 26.0667 33.259 26.0928 32.89 25.6643C32.8108 25.3832 32.7457 25.0967 32.6947 24.8049C31.7317 24.406 31.3281 23.7029 31.4837 22.6956C31.8912 22.3425 32.2297 22.3946 32.4994 22.8518C32.5872 23.5799 32.9909 23.8534 33.7103 23.6721C34.2732 23.3251 34.3253 22.9085 33.8665 22.4221C32.9948 22.4222 32.2787 22.0967 31.7181 21.4456C31.0853 20.1836 31.4108 19.2461 32.6947 18.6331C32.6606 18.1281 32.8429 17.7375 33.2415 17.4612Z" fill="#890101"/>
<path opacity="0.943" fill-rule="evenodd" clip-rule="evenodd" d="M6.36673 17.5391C6.84555 17.7199 7.30129 17.9543 7.73392 18.2422C7.79885 18.7909 7.78583 19.3378 7.69486 19.8828C7.28481 20.1073 6.88117 20.3417 6.48392 20.5859C6.08667 20.3417 5.68303 20.1073 5.27298 19.8828C5.18202 19.3378 5.16899 18.7909 5.23392 18.2422C5.62501 18.0185 6.00261 17.7841 6.36673 17.5391Z" fill="#133769"/>
<path opacity="0.971" fill-rule="evenodd" clip-rule="evenodd" d="M11.6797 26.6797C14.6095 27.3914 17.5262 28.1596 20.4297 28.9844C20.9393 29.3753 21.1086 29.8831 20.9375 30.5078C20.6558 31.137 20.1741 31.3844 19.4922 31.25C17.4831 30.7282 15.478 30.1944 13.4766 29.6484C12.9489 29.8187 12.8057 30.1573 13.0469 30.6641C15.4405 31.37 17.8495 32.0341 20.2734 32.6562C20.804 32.7313 21.2987 32.6272 21.7578 32.3438C23.9745 31.0271 26.2141 29.751 28.4766 28.5156C29.8177 28.3984 30.4297 29.0104 30.3125 30.3516C30.2123 30.7901 29.9649 31.1156 29.5703 31.3281C26.6016 33.0469 23.6328 34.7656 20.6641 36.4844C20.1699 36.734 19.6491 36.8121 19.1016 36.7188C16.2428 35.952 13.3782 35.2098 10.5078 34.4922C10.2066 34.5211 9.92016 34.5992 9.64844 34.7266C8.61313 32.9946 7.59747 31.2498 6.60156 29.4922C7.97156 28.6563 9.3518 27.836 10.7422 27.0312C11.0391 26.8425 11.3516 26.7253 11.6797 26.6797Z" fill="#890101"/>
<path opacity="0.947" fill-rule="evenodd" clip-rule="evenodd" d="M4.41406 28.8671C4.60344 28.843 4.78573 28.8691 4.96094 28.9452C6.36719 31.3931 7.77344 33.841 9.17969 36.2889C9.13062 36.4263 9.0525 36.5435 8.94531 36.6405C8.1282 37.036 7.32092 37.4527 6.52344 37.8905C6.3358 37.9541 6.15351 37.941 5.97656 37.8514C4.58018 35.4102 3.17393 32.9753 1.75781 30.5467C1.80223 30.3199 1.93244 30.1637 2.14844 30.078C2.93329 29.7119 3.6885 29.3082 4.41406 28.8671ZM4.25781 30.6639C4.49679 30.6871 4.6921 30.7913 4.84375 30.9764C5.13021 31.4973 5.41666 32.0181 5.70312 32.5389C5.77206 33.095 5.52467 33.3424 4.96094 33.2811C4.5244 32.7389 4.14679 32.153 3.82812 31.5233C3.72634 31.1018 3.86956 30.8153 4.25781 30.6639Z" fill="#890101"/>
</svg>
