<svg width="24" height="24" viewBox="0 0 24 24" fill="none" xmlns="http://www.w3.org/2000/svg">
<g clip-path="url(#clip0_309_14438)">
<path opacity="0.993" fill-rule="evenodd" clip-rule="evenodd" d="M11.6484 2.36719C12.4246 2.25861 12.9324 2.57111 13.1718 3.30469C13.1797 3.6495 13.2032 3.99325 13.2421 4.33594C15.2895 4.81655 16.7349 6.01969 17.578 7.94532C17.7239 8.32575 17.8333 8.71636 17.9062 9.11719C17.983 10.0065 18.0454 10.8971 18.0937 11.7891C18.2468 13.439 18.9187 14.8297 20.1093 15.9609C20.5698 16.6575 20.4839 17.2747 19.8515 17.8125C19.7476 17.8723 19.6382 17.9191 19.5234 17.9531C14.4921 17.9844 9.46084 17.9844 4.42961 17.9531C3.71831 17.6635 3.44487 17.14 3.6093 16.3828C3.67554 16.2346 3.75366 16.094 3.84367 15.9609C5.03425 14.8297 5.70616 13.439 5.8593 11.7891C5.90753 10.8971 5.97002 10.0065 6.0468 9.11719C6.44149 7.17839 7.51183 5.74871 9.25774 4.82813C9.72475 4.61257 10.2091 4.44851 10.7109 4.33594C10.7498 3.99325 10.7733 3.6495 10.7812 3.30469C10.9024 2.83204 11.1915 2.51954 11.6484 2.36719Z" fill="#B2AFAF"/>
<path opacity="0.958" fill-rule="evenodd" clip-rule="evenodd" d="M1.99242 3.07043C2.23142 3.05517 2.4658 3.07861 2.69554 3.14074C3.47679 3.59387 4.25804 4.04699 5.03929 4.50012C5.44101 4.87441 5.51132 5.30412 5.25023 5.78918C4.98365 6.10202 4.6477 6.21921 4.24242 6.14074C3.36176 5.69266 2.50238 5.20826 1.66429 4.68762C1.33659 4.28737 1.29753 3.85768 1.5471 3.39855C1.67789 3.25957 1.82633 3.15019 1.99242 3.07043Z" fill="#B2AFAF"/>
<path opacity="0.956" fill-rule="evenodd" clip-rule="evenodd" d="M21.3515 3.11728C22.1492 3.11015 22.5164 3.50078 22.4531 4.28916C22.4153 4.42723 22.3528 4.55223 22.2656 4.66416C21.4731 5.15939 20.6684 5.63597 19.8515 6.09385C19.3212 6.24019 18.9227 6.07613 18.6562 5.60166C18.49 5.10028 18.6228 4.70185 19.0546 4.40635C19.8247 3.97471 20.5903 3.54502 21.3515 3.11728Z" fill="#B2AFAF"/>
<path opacity="0.969" fill-rule="evenodd" clip-rule="evenodd" d="M-0.0234375 9.8672C-0.0234375 9.66409 -0.0234375 9.46093 -0.0234375 9.25782C0.114929 8.95337 0.349304 8.75804 0.679688 8.67189C1.61719 8.64062 2.55469 8.64062 3.49219 8.67189C4.09677 8.90453 4.3077 9.33418 4.125 9.96095C4.0204 10.2062 3.84071 10.3702 3.58594 10.4531C2.58594 10.4844 1.58594 10.4844 0.585938 10.4531C0.296032 10.3428 0.0929077 10.1475 -0.0234375 9.8672Z" fill="#B2AFAF"/>
<path opacity="0.969" fill-rule="evenodd" clip-rule="evenodd" d="M23.9764 9.25782C23.9764 9.46093 23.9764 9.66409 23.9764 9.8672C23.86 10.1475 23.6569 10.3428 23.367 10.4531C22.367 10.4844 21.367 10.4844 20.367 10.4531C19.7488 10.1296 19.6003 9.65298 19.9217 9.02345C20.0589 8.84153 20.2386 8.72434 20.4607 8.67189C21.3982 8.64062 22.3357 8.64062 23.2732 8.67189C23.6036 8.75804 23.838 8.95337 23.9764 9.25782Z" fill="#B2AFAF"/>
<path opacity="0.963" fill-rule="evenodd" clip-rule="evenodd" d="M9.53906 19.1484C11.1641 19.1484 12.789 19.1484 14.4141 19.1484C14.3283 20.445 13.6564 21.2496 12.3984 21.5625C11.1284 21.705 10.23 21.1972 9.70312 20.0391C9.61144 19.7489 9.55678 19.452 9.53906 19.1484Z" fill="#B2AFAF"/>
</g>
<defs>
<clipPath id="clip0_309_14438">
<rect width="24" height="24" fill="white"/>
</clipPath>
</defs>
</svg>
