<svg width="24" height="24" viewBox="0 0 24 24" fill="none" xmlns="http://www.w3.org/2000/svg">
<g clip-path="url(#clip0_309_14408)">
<path opacity="0.982" fill-rule="evenodd" clip-rule="evenodd" d="M23.9766 3.67966C23.9766 3.88278 23.9766 4.08591 23.9766 4.28903C23.8393 4.63249 23.5892 4.85903 23.2266 4.96872C22.2574 4.97655 21.2887 4.99999 20.3203 5.03903C19.7516 6.60114 18.6345 7.41363 16.9688 7.47653C15.3101 7.39624 14.1929 6.57592 13.6172 5.0156C9.3203 4.99999 5.02345 4.98433 0.726562 4.96872C0.363878 4.85903 0.113877 4.63249 -0.0234375 4.28903C-0.0234375 4.08591 -0.0234375 3.88278 -0.0234375 3.67966C0.0930042 3.33673 0.327379 3.11017 0.679688 2.99997C4.99228 2.99216 9.30478 2.96872 13.6172 2.92966C14.4396 0.945665 15.9083 0.172227 18.0234 0.609346C19.1949 1.00732 19.9605 1.79638 20.3203 2.97653C21.3048 2.96872 22.2892 2.97653 23.2734 2.99997C23.6257 3.11017 23.8601 3.33673 23.9766 3.67966ZM16.6641 2.50778C17.5587 2.44229 18.1446 2.83291 18.4219 3.67966C18.5173 4.45814 18.2126 5.01283 17.5078 5.34372C16.5783 5.5938 15.9299 5.2735 15.5625 4.38278C15.4127 3.44729 15.7799 2.82229 16.6641 2.50778Z" fill="#B2AFAF"/>
<path opacity="0.972" fill-rule="evenodd" clip-rule="evenodd" d="M23.9766 11.6953C23.9766 11.8828 23.9766 12.0703 23.9766 12.2578C23.8346 12.6573 23.5534 12.8995 23.1328 12.9844C18.8672 13 14.6016 13.0156 10.3359 13.0312C9.53353 14.964 8.09602 15.7452 6.02344 15.375C4.84969 14.9903 4.05279 14.2169 3.63281 13.0547C2.6957 13.0156 1.7582 12.9922 0.820312 12.9844C0.399748 12.8995 0.118498 12.6573 -0.0234375 12.2578C-0.0234375 12.0703 -0.0234375 11.8828 -0.0234375 11.6953C0.118498 11.2958 0.399748 11.0536 0.820312 10.9688C1.7582 10.9609 2.6957 10.9375 3.63281 10.8984C4.21664 9.35381 5.33381 8.54133 6.98438 8.46094C8.6452 8.54489 9.76237 9.3652 10.3359 10.9219C14.6016 10.9375 18.8672 10.9531 23.1328 10.9688C23.5534 11.0536 23.8346 11.2958 23.9766 11.6953ZM6.63281 10.5234C7.69809 10.4385 8.30747 10.9229 8.46094 11.9766C8.30841 13.0372 7.69903 13.5138 6.63281 13.4062C5.81133 13.1309 5.44416 12.5606 5.53125 11.6953C5.70075 11.1119 6.06797 10.7213 6.63281 10.5234Z" fill="#B2AFAF"/>
<path opacity="0.982" fill-rule="evenodd" clip-rule="evenodd" d="M23.9766 19.6641C23.9766 19.8672 23.9766 20.0704 23.9766 20.2735C23.8601 20.6164 23.6257 20.8429 23.2734 20.9531C22.2892 20.9766 21.3048 20.9844 20.3203 20.9766C19.7818 22.561 18.6724 23.4048 16.9922 23.5078C15.3246 23.4091 14.1996 22.581 13.6172 21.0235C9.30478 20.9844 4.99228 20.961 0.679688 20.9531C0.327379 20.8429 0.0930042 20.6164 -0.0234375 20.2735C-0.0234375 20.0704 -0.0234375 19.8672 -0.0234375 19.6641C0.113877 19.3206 0.363878 19.0941 0.726562 18.9844C5.02345 18.9688 9.3203 18.9531 13.6172 18.9375C14.4219 16.9647 15.875 16.1834 17.9766 16.5938C19.143 16.9811 19.9243 17.7545 20.3203 18.9141C21.2887 18.9531 22.2574 18.9766 23.2266 18.9844C23.5892 19.0941 23.8393 19.3206 23.9766 19.6641ZM16.8516 18.4922C17.9505 18.5815 18.4739 19.1753 18.4219 20.2735C18.0435 21.3103 17.3326 21.6462 16.2891 21.2813C15.4911 20.7296 15.3114 20.0187 15.75 19.1485C16.0332 18.7769 16.4003 18.5581 16.8516 18.4922Z" fill="#B2AFAF"/>
</g>
<defs>
<clipPath id="clip0_309_14408">
<rect width="24" height="24" fill="white"/>
</clipPath>
</defs>
</svg>
