<svg width="50" height="50" viewBox="0 0 50 50" fill="none" xmlns="http://www.w3.org/2000/svg">
<path opacity="0.977" fill-rule="evenodd" clip-rule="evenodd" d="M24.365 1.51359C25.1157 1.36672 25.7505 1.56203 26.2693 2.09953C29.7198 8.08911 33.1704 14.0787 36.6209 20.0683C36.8457 21.1003 36.4714 21.8002 35.4978 22.1679C28.4666 22.233 21.4353 22.233 14.4041 22.1679C13.4305 21.8002 13.0562 21.1003 13.281 20.0683C16.6418 14.1605 20.0272 8.26849 23.4373 2.3925C23.6722 2.01081 23.9814 1.71784 24.365 1.51359ZM23.5838 6.98234C24.5196 6.95125 25.4473 6.9838 26.367 7.08C26.4321 9.87951 26.4321 12.6789 26.367 15.4784C26.3181 15.5273 26.2693 15.5761 26.2205 15.6249C25.3741 15.6901 24.5278 15.6901 23.6814 15.6249C23.6326 15.5761 23.5838 15.5273 23.5349 15.4784C23.4545 12.6394 23.4707 9.80734 23.5838 6.98234ZM23.5838 17.7245C24.4958 17.7083 25.4073 17.7245 26.3181 17.7734C26.4296 18.3349 26.4458 18.9046 26.367 19.4823C26.3181 19.5312 26.2693 19.58 26.2205 19.6288C25.3741 19.694 24.5278 19.694 23.6814 19.6288C23.6326 19.58 23.5838 19.5312 23.5349 19.4823C23.458 18.8884 23.4743 18.3025 23.5838 17.7245Z" fill="#890101"/>
<path opacity="0.986" fill-rule="evenodd" clip-rule="evenodd" d="M1.70899 24.9512C5.58282 24.9349 9.45652 24.9512 13.3301 25C13.3789 25.0488 13.4277 25.0977 13.4766 25.1465C13.9628 30.5793 16.7785 34.1763 21.9238 35.9375C27.5577 37.0988 31.9034 35.2597 34.9609 30.4199C35.814 28.7656 36.3022 27.0078 36.4258 25.1465C36.4746 25.0977 36.5234 25.0488 36.5723 25C40.446 24.9349 44.3196 24.9349 48.1934 25C48.2422 25.0488 48.291 25.0977 48.3398 25.1465C48.405 26.0579 48.405 26.9694 48.3398 27.8809C48.199 28.2495 47.9549 28.5262 47.6074 28.711C45.8463 28.7223 44.3326 29.3244 43.0664 30.5176C41.5816 32.3888 41.3538 34.407 42.3828 36.5723C42.7734 37.0931 43.1641 37.614 43.5547 38.1348C43.7736 38.7186 43.7085 39.272 43.3594 39.7949C42.1712 40.9831 40.9831 42.1712 39.7949 43.3594C39.2734 43.7122 38.72 43.7774 38.1348 43.5547C37.614 43.1641 37.0931 42.7735 36.5723 42.3828C33.9175 41.1689 31.6551 41.6734 29.7852 43.8965C29.1244 45.0415 28.7663 46.2785 28.7109 47.6074C28.5262 47.9549 28.2495 48.199 27.8809 48.3399C25.9277 48.405 23.9746 48.405 22.0215 48.3399C21.6528 48.199 21.3762 47.9549 21.1914 47.6074C21.1657 46.0365 20.6774 44.6367 19.7266 43.4082C17.1212 41.0614 14.5333 41.0777 11.9629 43.457C11.3262 43.8014 10.7077 43.7689 10.1074 43.3594C8.91927 42.1712 7.73113 40.9831 6.54297 39.7949C6.06765 39.054 6.10021 38.3379 6.64063 37.6465C8.02332 36.2506 8.47905 34.5904 8.00781 32.666C7.47751 30.8662 6.32192 29.678 4.54102 29.1016C3.79425 28.9522 3.04556 28.8219 2.29492 28.711C1.94747 28.5262 1.70333 28.2495 1.5625 27.8809C1.4974 26.9694 1.4974 26.0579 1.5625 25.1465C1.63254 25.0934 1.68137 25.0282 1.70899 24.9512Z" fill="#133769"/>
<path opacity="0.983" fill-rule="evenodd" clip-rule="evenodd" d="M18.5056 24.9512C22.8026 24.9349 27.0995 24.9512 31.3962 25C31.5434 25.1439 31.6085 25.323 31.5916 25.5371C30.9597 29.2942 28.7461 31.3124 24.9509 31.5918C21.1551 31.3117 18.9417 29.2936 18.3103 25.5371C18.2969 25.3085 18.3621 25.1132 18.5056 24.9512Z" fill="#890101"/>
</svg>
