<svg width="24" height="24" viewBox="0 0 24 24" fill="none" xmlns="http://www.w3.org/2000/svg">
<g clip-path="url(#clip0_309_14499)">
<path opacity="0.924" fill-rule="evenodd" clip-rule="evenodd" d="M15.4922 0.492188C16.0234 0.492188 16.5547 0.492188 17.0859 0.492188C17.0859 0.679688 17.0859 0.867188 17.0859 1.05469C16.7734 1.05469 16.461 1.05469 16.1484 1.05469C16.1484 1.14844 16.1484 1.24219 16.1484 1.33594C16.4141 1.33594 16.6797 1.33594 16.9453 1.33594C16.9453 1.52344 16.9453 1.71094 16.9453 1.89844C16.6797 1.89844 16.4141 1.89844 16.1484 1.89844C16.1484 1.99219 16.1484 2.08594 16.1484 2.17969C16.4766 2.17969 16.8047 2.17969 17.1328 2.17969C17.1328 2.36719 17.1328 2.55469 17.1328 2.74219C16.5859 2.74219 16.0391 2.74219 15.4922 2.74219C15.4922 1.99219 15.4922 1.24219 15.4922 0.492188Z" fill="#B2AFAF"/>
<path opacity="0.9" fill-rule="evenodd" clip-rule="evenodd" d="M17.3203 0.492278C17.5567 0.476926 17.7911 0.492554 18.0234 0.539153C18.1406 0.742276 18.2578 0.945404 18.375 1.14853C18.5137 0.941542 18.6465 0.730604 18.7734 0.515715C19.0078 0.484464 19.2422 0.484464 19.4766 0.515715C19.2266 0.890715 18.9765 1.26572 18.7266 1.64072C18.9551 1.99631 19.1895 2.34787 19.4297 2.6954C19.1969 2.74989 18.9625 2.75769 18.7266 2.71884C18.6035 2.52741 18.4863 2.3321 18.375 2.1329C18.2615 2.31292 18.1599 2.50042 18.0703 2.6954C17.8218 2.74991 17.5717 2.75772 17.3203 2.71884C17.5547 2.35946 17.7891 2.00009 18.0234 1.64072C17.7586 1.27483 17.5243 0.892018 17.3203 0.492278Z" fill="#B2AFAF"/>
<path opacity="0.92" fill-rule="evenodd" clip-rule="evenodd" d="M19.7109 0.492188C19.9297 0.492188 20.1484 0.492188 20.3672 0.492188C20.3672 1.24219 20.3672 1.99219 20.3672 2.74219C20.1484 2.74219 19.9297 2.74219 19.7109 2.74219C19.7109 1.99219 19.7109 1.24219 19.7109 0.492188Z" fill="#B2AFAF"/>
<path opacity="0.93" fill-rule="evenodd" clip-rule="evenodd" d="M20.7422 0.492188C21.3828 0.492188 22.0234 0.492188 22.6641 0.492188C22.6641 0.679688 22.6641 0.867188 22.6641 1.05469C22.4453 1.05469 22.2266 1.05469 22.0078 1.05469C22.0078 1.61719 22.0078 2.17969 22.0078 2.74219C21.789 2.74219 21.5703 2.74219 21.3516 2.74219C21.3516 2.17969 21.3516 1.61719 21.3516 1.05469C21.1485 1.05469 20.9453 1.05469 20.7422 1.05469C20.7422 0.867188 20.7422 0.679688 20.7422 0.492188Z" fill="#B2AFAF"/>
<path opacity="0.988" fill-rule="evenodd" clip-rule="evenodd" d="M23.9766 3.39844C23.9766 10.086 23.9766 16.7734 23.9766 23.4609C21.9763 23.4765 19.9763 23.4609 17.9766 23.4141C18.3708 21.9075 18.7614 20.3997 19.1484 18.8906C18.8483 18.115 18.567 17.3338 18.3047 16.5469C18.452 15.8404 18.6317 15.1451 18.8438 14.4609C19.5496 14.6813 20.2527 14.8688 20.9531 15.0234C21.8956 13.0604 22.8253 11.0916 23.7422 9.11719C22.5124 8.49061 21.2702 7.88123 20.0156 7.28906C19.9806 7.37494 19.9337 7.45308 19.875 7.52344C19.4428 5.80978 18.3491 4.87228 16.5938 4.71094C15.5218 4.76255 14.6469 5.20003 13.9688 6.02344C13.9453 5.14856 13.9375 4.27358 13.9453 3.39844C17.2891 3.39844 20.6328 3.39844 23.9766 3.39844Z" fill="#B2AFAF"/>
<path opacity="0.972" fill-rule="evenodd" clip-rule="evenodd" d="M16.5705 6.07031C17.7689 6.18502 18.4252 6.84127 18.5392 8.03906C18.4631 9.01294 17.9631 9.64575 17.0392 9.9375C15.8139 10.095 15.0248 9.5872 14.672 8.41406C14.5846 7.03922 15.2175 6.25795 16.5705 6.07031Z" fill="#B2AFAF"/>
<path opacity="0.971" fill-rule="evenodd" clip-rule="evenodd" d="M20.6484 9.11719C21.1035 9.29002 21.541 9.50095 21.9609 9.75C21.3727 10.9521 20.8024 12.163 20.25 13.3828C20.216 13.409 20.177 13.4246 20.1328 13.4297C19.358 13.197 18.5767 12.9938 17.7891 12.8203C17.4997 14.0872 17.2028 15.3528 16.8984 16.6172C17.1514 17.4071 17.4326 18.1884 17.7422 18.9609C17.3834 20.3181 17.0318 21.6774 16.6875 23.0391C16.6539 23.19 16.5992 23.3306 16.5234 23.4609C16.0862 23.3438 15.6487 23.2266 15.2109 23.1094C15.1895 23.09 15.1739 23.0665 15.1641 23.0391C15.5151 21.7132 15.8588 20.3851 16.1953 19.0547C15.9902 18.4628 15.7715 17.8769 15.5391 17.2969C15.0305 17.1169 14.5227 16.9373 14.0156 16.7578C14.0226 17.6983 13.9836 18.628 13.8984 19.5469C12.3196 19.7048 10.7415 19.8688 9.16406 20.0391C9.09403 20.0293 9.03933 19.998 9 19.9453C8.94853 19.493 8.90944 19.0399 8.88281 18.5859C10.1032 18.4733 11.322 18.3483 12.5391 18.2109C12.5312 17.3046 12.5391 16.3983 12.5625 15.4922C12.8878 14.1988 13.2237 12.9097 13.5703 11.625C13.0193 11.4501 12.4647 11.286 11.9062 11.1328C11.862 11.1518 11.8307 11.1831 11.8125 11.2266C11.6067 12.0813 11.3723 12.925 11.1094 13.7578C10.6461 13.6361 10.1851 13.5033 9.72656 13.3594C10.0888 12.0435 10.4403 10.7231 10.7812 9.39844C10.9125 9.35423 11.0453 9.36206 11.1797 9.42188C13.8984 10.1797 16.6172 10.9375 19.3359 11.6953C19.3672 11.6797 19.3984 11.664 19.4297 11.6484C19.8366 10.8035 20.2428 9.95972 20.6484 9.11719Z" fill="#B2AFAF"/>
<path opacity="0.983" fill-rule="evenodd" clip-rule="evenodd" d="M-0.0234375 20.1328C-0.0234375 19.6172 -0.0234375 19.1016 -0.0234375 18.5859C0.0154903 18.1712 0.0545527 17.7494 0.09375 17.3203C0.251111 17.5011 0.399549 17.6886 0.539062 17.8828C0.646866 17.5358 0.795305 17.2077 0.984375 16.8984C1.27097 16.4712 1.57566 16.0571 1.89844 15.6562C1.94454 15.6285 1.97579 15.6442 1.99219 15.7031C2.15363 16.1249 2.33332 16.539 2.53125 16.9453C2.58184 17.0341 2.64434 17.0497 2.71875 16.9922C2.87334 16.6001 2.92022 16.1938 2.85938 15.7734C2.74944 15.1624 2.601 14.5608 2.41406 13.9688C4.85348 14.1102 6.28317 15.3993 6.70312 17.8359C6.85795 17.5796 7.02202 17.3296 7.19531 17.0859C7.23159 17.0292 7.27064 17.0292 7.3125 17.0859C7.43752 17.5547 7.56248 18.0234 7.6875 18.4922C8.07281 20.337 7.50253 21.798 5.97656 22.875C4.35639 23.7454 2.80951 23.636 1.33594 22.5469C0.607448 21.8943 0.154322 21.0896 -0.0234375 20.1328Z" fill="#B2AFAF"/>
</g>
<defs>
<clipPath id="clip0_309_14499">
<rect width="24" height="24" fill="white"/>
</clipPath>
</defs>
</svg>
