<svg width="51" height="50" viewBox="0 0 51 50" fill="none" xmlns="http://www.w3.org/2000/svg">
<path opacity="0.942" fill-rule="evenodd" clip-rule="evenodd" d="M2.59961 1.12305C6.31069 1.10677 10.0216 1.12305 13.7324 1.17188C12.874 1.91663 12.3206 2.84437 12.0723 3.95508C9.82688 4.069 7.58078 4.08526 5.33398 4.00391C3.63481 3.78597 2.72336 2.82568 2.59961 1.12305Z" fill="#890101"/>
<path opacity="0.946" fill-rule="evenodd" clip-rule="evenodd" d="M15.7831 1.51364C17.7535 1.27611 19.0231 2.08992 19.5917 3.95504C22.7926 3.77164 25.82 4.4064 28.6738 5.85934C30.9492 7.35372 32.7559 9.29056 34.0937 11.6699C34.2479 12.0111 34.427 12.3366 34.6308 12.6465C34.2009 12.914 33.7452 13.0931 33.2636 13.1836C32.3056 11.4638 31.1337 9.90133 29.748 8.49606C28.432 7.30068 26.902 6.48688 25.1581 6.05465C23.4528 5.51333 21.7113 5.30174 19.9335 5.41989C19.8196 5.45244 19.7057 5.48499 19.5917 5.51754C19.0914 6.97708 18.066 7.75833 16.5156 7.86129C14.9051 7.77253 13.8634 6.95873 13.3906 5.41989C13.1326 3.4521 13.9301 2.15001 15.7831 1.51364Z" fill="#890101"/>
<path opacity="0.948" fill-rule="evenodd" clip-rule="evenodd" d="M9.43539 5.32225C10.3149 5.306 11.1938 5.32227 12.0721 5.37108C12.1855 5.85765 12.3483 6.32965 12.5604 6.7871C12.5279 6.8522 12.4953 6.9173 12.4627 6.98241C11.1806 7.69533 9.91106 8.42775 8.65414 9.17967C7.215 9.83563 5.96175 9.5915 4.89438 8.44725C4.76077 8.30144 4.7445 8.15496 4.84555 8.0078C6.38165 7.11003 7.9116 6.21484 9.43539 5.32225Z" fill="#890101"/>
<path opacity="0.978" fill-rule="evenodd" clip-rule="evenodd" d="M14.3186 8.54492C15.7672 9.32367 17.2158 9.32367 18.6643 8.54492C18.7131 9.61865 18.7294 10.6929 18.7131 11.7676C19.8635 11.7164 21.0029 11.7979 22.1311 12.0117C24.0298 12.6409 25.218 13.9268 25.6956 15.8691C25.8256 17.3308 25.8745 18.7956 25.842 20.2637C19.6246 20.2637 13.4072 20.2637 7.18969 20.2637C7.17342 18.9612 7.1897 17.6591 7.23852 16.3574C7.4925 14.4004 8.51789 13.017 10.3147 12.207C10.8448 11.9761 11.3982 11.8458 11.9748 11.8164C12.7554 11.7676 13.5367 11.7514 14.3186 11.7676C14.3186 10.6934 14.3186 9.61914 14.3186 8.54492Z" fill="#133769"/>
<path opacity="0.968" fill-rule="evenodd" clip-rule="evenodd" d="M36.291 13.4277C36.5503 13.4767 36.7619 13.6068 36.9258 13.8184C38.2317 16.1051 39.4851 18.4163 40.6855 20.752C40.6439 21.1028 40.4486 21.3145 40.0996 21.3867C38.3331 22.0732 36.559 22.7405 34.7773 23.3887C34.5333 23.3317 34.338 23.2016 34.1914 22.998C33.6141 20.4444 33.0443 17.8891 32.4824 15.332C32.4937 15.147 32.5588 14.9842 32.6777 14.8438C33.8918 14.3658 35.0962 13.8938 36.291 13.4277Z" fill="#890101"/>
<path opacity="0.989" fill-rule="evenodd" clip-rule="evenodd" d="M7.18945 21.5332C13.4069 21.5332 19.6243 21.5332 25.8418 21.5332C25.8418 27.0345 25.8418 32.5358 25.8418 38.0371C19.6243 38.0371 13.4069 38.0371 7.18945 38.0371C7.18945 32.5358 7.18945 27.0345 7.18945 21.5332Z" fill="#133769"/>
<path opacity="0.973" fill-rule="evenodd" clip-rule="evenodd" d="M40.2947 25.3418C44.1692 28.5024 45.7969 32.5715 45.1775 37.5488C46.043 37.026 46.8079 36.3749 47.4725 35.5957C48.3694 37.7149 48.5322 39.896 47.9608 42.1387C46.872 45.3425 44.6422 47.1491 41.2713 47.5586C38.9748 47.9253 36.8914 47.437 35.0213 46.0938C33.0346 44.1585 32.2045 41.7985 32.5311 39.0137C32.6548 37.705 32.9478 36.4354 33.41 35.2051C34.0447 33.6758 34.7283 32.1784 35.4608 30.7129C36.4183 30.9716 37.1507 31.5249 37.658 32.373C38.753 31.0289 39.4855 29.4989 39.8553 27.7832C40.0232 26.9711 40.1696 26.1573 40.2947 25.3418ZM40.6854 35.4004C41.1211 36.3702 41.5931 37.3468 42.1014 38.3301C42.8326 39.1742 43.2721 40.1508 43.4197 41.2598C43.1992 43.0585 42.1738 44.0025 40.3436 44.0918C38.4594 43.8512 37.4665 42.777 37.365 40.8691C37.4223 40.0301 37.6664 39.2488 38.0975 38.5254C38.944 37.4676 39.8066 36.426 40.6854 35.4004Z" fill="#890101"/>
<path opacity="0.955" fill-rule="evenodd" clip-rule="evenodd" d="M7.18945 39.3066C13.4069 39.3066 19.6243 39.3066 25.8418 39.3066C25.8418 40.9343 25.8418 42.5618 25.8418 44.1895C19.6243 44.1895 13.4069 44.1895 7.18945 44.1895C7.18945 42.5618 7.18945 40.9343 7.18945 39.3066Z" fill="#133769"/>
<path opacity="0.973" fill-rule="evenodd" clip-rule="evenodd" d="M7.18968 45.459C13.4072 45.459 19.6245 45.459 25.842 45.459C25.8792 46.3445 25.8304 47.2234 25.6955 48.0957C25.5429 48.4109 25.2988 48.6226 24.9631 48.7305C19.3316 48.7956 13.7001 48.7956 8.06859 48.7305C7.66168 48.584 7.38499 48.3073 7.23851 47.9004C7.18971 47.0872 7.17343 46.2734 7.18968 45.459Z" fill="#133769"/>
</svg>
