<svg width="24" height="24" viewBox="0 0 24 24" fill="none" xmlns="http://www.w3.org/2000/svg">
<path opacity="0.997" fill-rule="evenodd" clip-rule="evenodd" d="M1.47656 1.47656C8.47655 1.47656 15.4766 1.47656 22.4766 1.47656C22.4844 2.8204 22.4766 4.16415 22.4531 5.50781C22.3672 5.71875 22.2187 5.8672 22.0078 5.95312C15.3203 5.98439 8.63283 5.98439 1.94531 5.95312C1.73437 5.8672 1.58593 5.71875 1.5 5.50781C1.47656 4.16415 1.46875 2.8204 1.47656 1.47656ZM11.6484 2.64844C12.3272 2.54617 12.7882 2.81179 13.0312 3.44531C13.1422 4.10652 12.8843 4.55183 12.2578 4.78125C11.5966 4.89216 11.1513 4.63435 10.9219 4.00781C10.8211 3.36539 11.0632 2.91226 11.6484 2.64844Z" fill="#B2AFAF"/>
<path opacity="0.994" fill-rule="evenodd" clip-rule="evenodd" d="M3.72656 6.72656C4.72655 6.72656 5.72658 6.72656 6.72656 6.72656C6.71217 7.37672 6.72778 8.02514 6.77344 8.67188C6.79172 8.78714 6.85425 8.86528 6.96094 8.90625C7.30467 9 7.64845 9 7.99219 8.90625C8.07811 8.88281 8.13281 8.82811 8.15625 8.74219C8.22417 8.0737 8.24761 7.40184 8.22656 6.72656C9.22655 6.72656 10.2266 6.72656 11.2266 6.72656C11.2122 7.37672 11.2278 8.02514 11.2734 8.67188C11.2917 8.78714 11.3542 8.86528 11.4609 8.90625C11.8047 9 12.1485 9 12.4922 8.90625C12.5781 8.88281 12.6328 8.82811 12.6562 8.74219C12.7242 8.0737 12.7476 7.40184 12.7266 6.72656C13.7265 6.72656 14.7266 6.72656 15.7266 6.72656C15.7122 7.37672 15.7278 8.02514 15.7734 8.67188C15.7917 8.78714 15.8542 8.86528 15.9609 8.90625C16.3047 9 16.6485 9 16.9922 8.90625C17.0781 8.88281 17.1328 8.82811 17.1562 8.74219C17.2242 8.0737 17.2476 7.40184 17.2266 6.72656C18.2265 6.72656 19.2266 6.72656 20.2266 6.72656C19.9922 7.97658 19.7578 9.22655 19.5234 10.4766C14.4922 10.4766 9.46092 10.4766 4.42969 10.4766C4.19531 9.22655 3.96094 7.97658 3.72656 6.72656Z" fill="#B2AFAF"/>
<path opacity="0.949" fill-rule="evenodd" clip-rule="evenodd" d="M5.22651 12.7266C6.07991 13.3716 6.44708 14.231 6.32807 15.3047C6.2968 15.4297 6.26558 15.5547 6.23432 15.6797C5.96596 16.3258 5.68471 16.9665 5.39057 17.6016C5.09694 18.591 5.30788 19.4582 6.02338 20.2031C5.38387 20.2216 4.86041 19.9795 4.45307 19.4766C3.64351 18.4439 3.50289 17.3345 4.03119 16.1484C4.34559 15.8185 4.64246 15.4748 4.92182 15.1172C5.35068 14.3593 5.45221 13.5624 5.22651 12.7266Z" fill="#B2AFAF"/>
<path opacity="0.981" fill-rule="evenodd" clip-rule="evenodd" d="M12.2109 12.7266C12.4453 12.7266 12.6797 12.7266 12.9141 12.7266C13.0019 13.2303 13.1816 13.6991 13.4531 14.1328C14.0552 14.954 14.7271 15.7196 15.4688 16.4297C16.6434 17.8123 16.7996 19.3123 15.9375 20.9297C15.5315 21.6564 14.9455 22.172 14.1797 22.4766C13.9987 21.1285 13.5533 19.8785 12.8438 18.7266C12.6137 18.4651 12.3559 18.2385 12.0703 18.0469C12.0078 18.0156 11.9453 18.0156 11.8828 18.0469C11.4083 18.3495 11.0099 18.7323 10.6875 19.1953C10.0068 20.2285 9.43646 21.3223 8.97657 22.4766C8.41566 21.9815 8.01722 21.3721 7.78126 20.6484C7.06393 17.7474 7.88424 15.3802 10.2422 13.5469C10.8438 13.1305 11.5 12.8571 12.2109 12.7266Z" fill="#B2AFAF"/>
<path opacity="0.951" fill-rule="evenodd" clip-rule="evenodd" d="M18.633 12.7266C18.6798 12.7252 18.711 12.7487 18.7268 12.7969C18.5032 13.6132 18.6048 14.3866 19.0315 15.1172C19.2623 15.442 19.528 15.7389 19.8283 16.0079C20.2057 16.5958 20.3307 17.2364 20.2033 17.9297C20.0412 18.8565 19.5646 19.5674 18.7737 20.0626C18.507 20.1996 18.2257 20.2464 17.9299 20.2032C18.6454 19.4583 18.8563 18.5911 18.5627 17.6016C18.2724 16.9649 17.9911 16.3243 17.719 15.6797C17.5003 14.9412 17.5784 14.2381 17.9533 13.5704C18.1691 13.2791 18.3956 12.9979 18.633 12.7266Z" fill="#B2AFAF"/>
</svg>
