<svg width="24" height="24" viewBox="0 0 24 24" fill="none" xmlns="http://www.w3.org/2000/svg">
<path opacity="0.976" fill-rule="evenodd" clip-rule="evenodd" d="M10.7109 1.47662C12.9233 1.3246 14.4155 2.27773 15.1875 4.33599C15.2546 4.60911 15.3093 4.88256 15.3516 5.15631C12.6641 5.18757 9.97655 5.18757 7.28906 5.15631C7.58194 3.13699 8.72259 1.91042 10.7109 1.47662Z" fill="#B2AFAF"/>
<path opacity="0.959" fill-rule="evenodd" clip-rule="evenodd" d="M6.58594 5.92965C9.93745 5.875 13.2968 5.86721 16.6641 5.90621C16.875 5.99214 17.0235 6.14059 17.1094 6.35153C17.1328 6.7262 17.1406 7.1012 17.1328 7.47653C14.4922 7.48435 11.8515 7.47653 9.21094 7.45309C8.95903 7.12304 8.66217 6.84179 8.32031 6.60934C8.13722 6.54212 7.94972 6.52651 7.75781 6.56246C7.58114 6.63732 7.40925 6.72325 7.24219 6.82028C7.19531 6.79684 7.14844 6.7734 7.10156 6.74996C7.02558 6.5761 6.95527 6.39643 6.89062 6.2109C6.81895 6.08157 6.71742 5.98782 6.58594 5.92965Z" fill="#B2AFAF"/>
<path opacity="0.937" fill-rule="evenodd" clip-rule="evenodd" d="M5.46094 6.49217C5.71144 6.48439 5.96142 6.49221 6.21094 6.51561C6.29747 6.75092 6.40683 6.97746 6.53906 7.19529C6.9712 7.60278 7.42434 7.62621 7.89844 7.26561C7.96092 7.23434 8.02345 7.23434 8.08594 7.26561C8.23439 7.41406 8.3828 7.56246 8.53125 7.71092C8.58352 7.89767 8.53664 8.05395 8.39063 8.17967C8.20383 8.90764 8.47725 9.35295 9.21094 9.51561C9.26564 9.53904 9.30469 9.57809 9.32813 9.63279C9.36488 9.88531 9.35709 10.1353 9.30469 10.3828C8.32608 10.6468 8.07609 11.225 8.55469 12.1172C8.46595 12.4092 8.27845 12.6123 7.99219 12.7265C7.10184 12.2261 6.50808 12.4683 6.21094 13.4531C5.9453 13.4844 5.6797 13.4844 5.41406 13.4531C5.1562 12.4686 4.58591 12.2264 3.70313 12.7265C3.43922 12.5799 3.22829 12.3767 3.07031 12.1172C3.47431 11.5929 3.44306 11.1007 2.97656 10.6406C2.81877 10.5382 2.6469 10.4757 2.46094 10.4531C2.40625 10.4297 2.36719 10.3906 2.34375 10.3359C2.3125 10.0859 2.3125 9.8359 2.34375 9.58592C2.57996 9.51214 2.80652 9.41056 3.02344 9.28123C3.40968 8.88317 3.44874 8.45346 3.14063 7.99217C3.10937 7.89842 3.10937 7.80467 3.14063 7.71092C3.30079 7.52698 3.48048 7.37075 3.67969 7.24217C4.5838 7.74345 5.17753 7.49346 5.46094 6.49217ZM5.55469 7.85154C6.79003 7.82998 7.57908 8.40809 7.92188 9.58592C8.03663 10.63 7.63819 11.4034 6.72656 11.9062C5.66522 12.3031 4.78238 12.0609 4.07813 11.1797C3.45204 10.0207 3.64735 9.02853 4.66406 8.20311C4.95019 8.04293 5.24705 7.92575 5.55469 7.85154Z" fill="#B2AFAF"/>
<path opacity="0.965" fill-rule="evenodd" clip-rule="evenodd" d="M9.16407 8.17969C11.2578 8.17969 13.3516 8.17969 15.4453 8.17969C15.4453 8.58595 15.4453 8.99217 15.4453 9.39844C13.6169 9.41405 11.7888 9.39844 9.96095 9.35156C9.90775 9.2438 9.84526 9.14222 9.77345 9.04687C9.54203 8.90231 9.29987 8.78512 9.04689 8.69531C9.01562 8.60156 9.01562 8.50781 9.04689 8.41406C9.13515 8.36002 9.1742 8.28192 9.16407 8.17969Z" fill="#B2AFAF"/>
<path opacity="0.961" fill-rule="evenodd" clip-rule="evenodd" d="M5.55467 8.55477C6.39392 8.48554 6.94859 8.84493 7.21873 9.6329C7.3316 10.6892 6.86285 11.283 5.81248 11.4141C4.77673 11.2686 4.32362 10.6749 4.4531 9.6329C4.62942 9.07373 4.99662 8.71434 5.55467 8.55477Z" fill="#B2AFAF"/>
<path opacity="0.967" fill-rule="evenodd" clip-rule="evenodd" d="M10.0547 10.1016C11.8672 10.1016 13.6797 10.1016 15.4922 10.1016C15.4922 12.8985 15.4922 15.6953 15.4922 18.4922C12.7266 18.4922 9.96094 18.4922 7.19531 18.4922C7.19531 16.7109 7.19531 14.9297 7.19531 13.1484C7.36533 13.185 7.52156 13.2553 7.66406 13.3594C7.98539 13.4699 8.2823 13.423 8.55469 13.2188C8.73436 13.0391 8.91408 12.8594 9.09375 12.6797C9.32377 12.2776 9.30816 11.887 9.04688 11.5078C9.01561 11.4297 9.01561 11.3516 9.04688 11.2734C9.37575 11.1868 9.657 11.0149 9.89062 10.7578C10.0175 10.557 10.0722 10.3382 10.0547 10.1016ZM11.2266 11.2734C12.61 11.2032 13.5866 11.797 14.1562 13.0547C14.5615 14.5639 14.085 15.6968 12.7266 16.4531C11.2594 16.9753 10.0953 16.5925 9.23438 15.3047C8.58445 13.8338 8.9048 12.6229 10.1953 11.6719C10.529 11.4959 10.8727 11.3631 11.2266 11.2734Z" fill="#B2AFAF"/>
<path opacity="0.937" fill-rule="evenodd" clip-rule="evenodd" d="M18.2578 11.5078C18.6641 11.5078 19.0703 11.5078 19.4766 11.5078C19.4766 13.2422 19.4766 14.9766 19.4766 16.7109C19.0703 16.7109 18.6641 16.7109 18.2578 16.7109C18.2578 14.9766 18.2578 13.2422 18.2578 11.5078Z" fill="#B2AFAF"/>
<path opacity="0.972" fill-rule="evenodd" clip-rule="evenodd" d="M11.2266 11.9767C12.4959 11.8802 13.2849 12.4427 13.5938 13.6642C13.6512 15.0443 12.9949 15.8256 11.6251 16.0079C10.1354 15.809 9.47912 14.9652 9.6563 13.4767C9.89616 12.6742 10.4196 12.1742 11.2266 11.9767Z" fill="#B2AFAF"/>
<path opacity="0.941" fill-rule="evenodd" clip-rule="evenodd" d="M16.1484 12.6797C16.6172 12.6797 17.0859 12.6797 17.5547 12.6797C17.5547 13.6328 17.5547 14.586 17.5547 15.5391C17.0859 15.5391 16.6172 15.5391 16.1484 15.5391C16.1484 14.586 16.1484 13.6328 16.1484 12.6797Z" fill="#B2AFAF"/>
<path opacity="0.934" fill-rule="evenodd" clip-rule="evenodd" d="M20.1797 13.3829C20.5431 13.3643 20.9025 13.3877 21.2578 13.4532C21.6449 13.726 21.7308 14.0776 21.5156 14.5079C21.4059 14.6642 21.2575 14.7658 21.0703 14.8125C20.7738 14.836 20.477 14.8438 20.1797 14.836C20.1797 14.3516 20.1797 13.8672 20.1797 13.3829Z" fill="#B2AFAF"/>
<path opacity="0.943" fill-rule="evenodd" clip-rule="evenodd" d="M7.19531 19.1953C9.94533 19.1953 12.6953 19.1953 15.4453 19.1953C15.4453 19.6016 15.4453 20.0078 15.4453 20.4141C12.6953 20.4141 9.94533 20.4141 7.19531 20.4141C7.19531 20.0078 7.19531 19.6016 7.19531 19.1953Z" fill="#B2AFAF"/>
<path opacity="0.994" fill-rule="evenodd" clip-rule="evenodd" d="M5.60155 21.1172C9.41408 21.1094 13.2266 21.1172 17.039 21.1406C17.0625 21.1641 17.0859 21.1875 17.1094 21.2109C17.1328 21.6325 17.1406 22.0544 17.1328 22.4766C13.2578 22.4766 9.38281 22.4766 5.5078 22.4766C5.50002 22.0544 5.5078 21.6325 5.53124 21.2109C5.56485 21.1854 5.58828 21.1542 5.60155 21.1172Z" fill="#B2AFAF"/>
</svg>
