<svg width="24" height="24" viewBox="0 0 24 24" fill="none" xmlns="http://www.w3.org/2000/svg">
<path opacity="0.982" fill-rule="evenodd" clip-rule="evenodd" d="M3.63281 2.36719C8.99222 2.35937 14.3516 2.36719 19.7109 2.39063C20 2.49219 20.1953 2.6875 20.2969 2.97656C20.3359 5.42986 20.3281 7.88297 20.2734 10.3359C19.7891 10.086 19.3047 10.086 18.8203 10.3359C18.7813 8.46113 18.7578 6.58613 18.75 4.71094C18.6737 4.24404 18.4003 3.98623 17.9297 3.9375C13.7578 3.90625 9.58594 3.90625 5.41406 3.9375C5.01085 3.99689 4.75303 4.22345 4.64063 4.61719C4.60937 9.52345 4.60937 14.4297 4.64063 19.3359C4.75303 19.7297 5.01085 19.9562 5.41406 20.0156C9.58594 20.0469 13.7578 20.0469 17.9297 20.0156C18.4219 19.9609 18.6953 19.6875 18.75 19.1953C18.7578 17.3357 18.7813 15.4763 18.8203 13.6172C19.3047 13.8672 19.7891 13.8672 20.2734 13.6172C20.3281 16.0702 20.3359 18.5233 20.2969 20.9766C20.1953 21.2656 20 21.4609 19.7109 21.5625C14.3672 21.5938 9.02344 21.5938 3.67969 21.5625C3.30192 21.4659 3.09098 21.2238 3.04688 20.8359C3.01562 14.9141 3.01562 8.99217 3.04688 3.07031C3.11679 2.72731 3.3121 2.49294 3.63281 2.36719Z" fill="#B2AFAF"/>
<path opacity="0.948" fill-rule="evenodd" clip-rule="evenodd" d="M12.4453 5.36719C13.0078 5.36719 13.5703 5.36719 14.1328 5.36719C14.1328 6.02344 14.1328 6.67969 14.1328 7.33594C13.3672 7.33594 12.6016 7.33594 11.8359 7.33594C11.8281 6.83569 11.8359 6.33567 11.8594 5.83594C11.9734 5.57259 12.1687 5.41636 12.4453 5.36719Z" fill="#B2AFAF"/>
<path opacity="0.923" fill-rule="evenodd" clip-rule="evenodd" d="M14.5547 5.36719C15.2736 5.35937 15.9923 5.36719 16.7109 5.39063C17.0473 5.50885 17.1489 5.7354 17.0156 6.07032C16.9609 6.12502 16.9063 6.17968 16.8516 6.23438C16.0861 6.25782 15.3205 6.26565 14.5547 6.25782C14.5547 5.96096 14.5547 5.66405 14.5547 5.36719Z" fill="#B2AFAF"/>
<path opacity="0.957" fill-rule="evenodd" clip-rule="evenodd" d="M9.02344 5.97656C9.80471 5.97656 10.5859 5.97656 11.3672 5.97656C11.3672 6.39844 11.3672 6.82031 11.3672 7.24219C10.6327 7.23436 9.89827 7.24219 9.16407 7.26562C8.4219 7.4453 7.96093 7.90627 7.78126 8.64844C7.75782 10.4453 7.74999 12.2421 7.75782 14.0391C7.33594 14.0391 6.91407 14.0391 6.49219 14.0391C6.48437 12.1952 6.49219 10.3515 6.51563 8.50781C6.8288 7.14 7.66473 6.29625 9.02344 5.97656Z" fill="#B2AFAF"/>
<path opacity="0.918" fill-rule="evenodd" clip-rule="evenodd" d="M14.5547 6.39844C15.3611 6.72337 16.158 7.07494 16.9454 7.45312C17.1659 7.75486 17.119 8.00484 16.8047 8.20312C16.6954 8.23439 16.586 8.23439 16.4766 8.20312C15.8516 7.92187 15.2266 7.64062 14.6016 7.35937C14.5557 7.04325 14.5401 6.72291 14.5547 6.39844Z" fill="#B2AFAF"/>
<path opacity="0.987" fill-rule="evenodd" clip-rule="evenodd" d="M11.6016 7.7578C12.6037 7.73704 13.6037 7.76048 14.6016 7.82812C15.344 8.07051 15.7737 8.5783 15.8906 9.35155C15.9219 12.1953 15.9219 15.039 15.8906 17.8828C15.8245 18.1331 15.6761 18.3128 15.4453 18.4219C13.8538 18.4987 12.26 18.5143 10.6641 18.4687C10.3828 18.4061 10.1874 18.2421 10.0781 17.9766C10.0469 15.0547 10.0469 12.1328 10.0781 9.21093C10.2921 8.41087 10.7999 7.92651 11.6016 7.7578Z" fill="#B2AFAF"/>
<path opacity="0.959" fill-rule="evenodd" clip-rule="evenodd" d="M19.2422 10.6172C20.2276 10.5564 20.7901 11.0096 20.9297 11.9766C20.7612 13.0581 20.1362 13.4877 19.0547 13.2656C18.3962 12.9725 18.1072 12.4646 18.1875 11.7422C18.3084 11.1449 18.66 10.7699 19.2422 10.6172Z" fill="#B2AFAF"/>
<path opacity="0.956" fill-rule="evenodd" clip-rule="evenodd" d="M6.02345 14.5078C6.6955 14.5 7.3674 14.5078 8.03907 14.5313C8.09378 14.586 8.14843 14.6406 8.20314 14.6953C8.24706 15.0908 8.23145 15.4814 8.15626 15.8672C8.11393 15.9235 8.05928 15.9626 7.9922 15.9844C7.30032 16.0297 6.61281 16.0141 5.9297 15.9375C5.8644 15.8826 5.82531 15.8123 5.81251 15.7266C5.78125 15.3984 5.78125 15.0703 5.81251 14.7422C5.86056 14.6397 5.93087 14.5615 6.02345 14.5078Z" fill="#B2AFAF"/>
<path opacity="0.95" fill-rule="evenodd" clip-rule="evenodd" d="M6.16406 16.4297C6.72656 16.4297 7.28906 16.4297 7.85156 16.4297C7.98905 17.145 8.09063 17.8637 8.15625 18.5859C8.13281 18.6406 8.09377 18.6797 8.03906 18.7031C7.35155 18.7344 6.66408 18.7344 5.97656 18.7031C5.93752 18.6641 5.89842 18.625 5.85938 18.5859C5.94534 17.8667 6.04692 17.148 6.16406 16.4297Z" fill="#B2AFAF"/>
</svg>
