<svg width="24" height="24" viewBox="0 0 24 24" fill="none" xmlns="http://www.w3.org/2000/svg">
<path opacity="0.977" fill-rule="evenodd" clip-rule="evenodd" d="M11.4609 0.445353C12.3882 0.30373 13.0835 0.631855 13.5468 1.42973C13.623 1.6724 13.6308 1.91458 13.5703 2.15629C15.4972 2.87172 16.4816 4.25454 16.5234 6.30473C13.4609 6.30473 10.3984 6.30473 7.3359 6.30473C7.3254 4.30037 8.24729 2.92537 10.1015 2.17973C10.096 1.23604 10.5491 0.657917 11.4609 0.445353Z" fill="#B2AFAF"/>
<path opacity="0.982" fill-rule="evenodd" clip-rule="evenodd" d="M6.63282 7.24219C10.1485 7.23437 13.6641 7.24219 17.1797 7.26563C17.349 7.3073 17.4662 7.40883 17.5313 7.57032C17.5625 8.1953 17.5625 8.82033 17.5313 9.44532C17.4766 9.56251 17.3906 9.64843 17.2734 9.70313C13.7109 9.7344 10.1484 9.7344 6.58595 9.70313C6.45315 9.66408 6.36718 9.57812 6.32814 9.44532C6.29687 8.82033 6.29687 8.1953 6.32814 7.57032C6.37586 7.40555 6.47743 7.29619 6.63282 7.24219Z" fill="#B2AFAF"/>
<path opacity="0.974" fill-rule="evenodd" clip-rule="evenodd" d="M7.24219 10.6641C10.4141 10.6641 13.5859 10.6641 16.7578 10.6641C16.7578 13.1953 16.7578 15.7266 16.7578 18.2578C13.5859 18.2578 10.4141 18.2578 7.24219 18.2578C7.24219 15.7266 7.24219 13.1953 7.24219 10.6641ZM11.5547 12.1172C12.738 12.0172 13.6052 12.486 14.1562 13.5234C14.6015 14.8901 14.2031 15.9292 12.9609 16.6406C11.5572 17.1065 10.5025 16.6924 9.79688 15.3984C9.38573 14.1945 9.69042 13.218 10.7109 12.4688C10.9841 12.3182 11.2654 12.201 11.5547 12.1172Z" fill="#B2AFAF"/>
<path opacity="0.975" fill-rule="evenodd" clip-rule="evenodd" d="M3.91402 11.2734C4.6017 11.2656 5.28919 11.2734 5.97652 11.2969C6.1029 11.3292 6.20447 11.3995 6.28121 11.5078C6.35855 13.4425 6.37416 15.38 6.32808 17.3203C6.25777 17.4531 6.15619 17.5547 6.0234 17.625C5.30466 17.6563 4.58589 17.6563 3.86715 17.625C3.71453 17.5506 3.61296 17.4334 3.56246 17.2734C3.53905 17.0396 3.53124 16.8052 3.53902 16.5703C3.00754 16.5781 2.47629 16.5703 1.94527 16.5469C1.7451 16.4873 1.62791 16.3545 1.59371 16.1484C1.58589 15.5938 1.57809 15.0391 1.57027 14.4844C1.56377 13.8797 1.58721 13.2781 1.64058 12.6797C1.71291 12.5917 1.79884 12.5214 1.8984 12.4688C2.44505 12.4453 2.99192 12.4375 3.53902 12.4453C3.53124 12.1948 3.53905 11.9448 3.56246 11.6953C3.60571 11.4884 3.7229 11.3478 3.91402 11.2734Z" fill="#B2AFAF"/>
<path opacity="0.974" fill-rule="evenodd" clip-rule="evenodd" d="M17.9766 11.2734C18.6642 11.2656 19.3517 11.2734 20.0391 11.2969C20.2392 11.3564 20.3564 11.4893 20.3906 11.6953C20.414 11.9448 20.4219 12.1948 20.4141 12.4453C20.9768 12.4375 21.5393 12.4453 22.1016 12.4688C22.2498 12.5381 22.3358 12.6553 22.3594 12.8203C22.3907 13.9297 22.3907 15.0391 22.3594 16.1484C22.3252 16.3545 22.208 16.4873 22.0078 16.5469C21.4768 16.5703 20.9455 16.5781 20.4141 16.5703C20.431 16.8559 20.4076 17.1372 20.3438 17.4141C20.2714 17.5021 20.1855 17.5724 20.0859 17.625C19.3516 17.6563 18.6172 17.6563 17.8828 17.625C17.7478 17.5664 17.6619 17.4648 17.625 17.3203C17.5937 15.4297 17.5937 13.5391 17.625 11.6484C17.6884 11.468 17.8056 11.343 17.9766 11.2734Z" fill="#B2AFAF"/>
<path opacity="0.987" fill-rule="evenodd" clip-rule="evenodd" d="M6.4922 19.1484C10.1641 19.1406 13.836 19.1484 17.5078 19.1719C17.6523 19.2087 17.7539 19.2946 17.8125 19.4297C17.8359 19.9294 17.8438 20.4294 17.8359 20.9297C18.0708 20.9219 18.3052 20.9297 18.5391 20.9531C18.7187 21.0078 18.8359 21.125 18.8906 21.3047C18.9219 21.9141 18.9219 22.5234 18.8906 23.1328C18.8359 23.2813 18.7344 23.3828 18.5859 23.4375C14.1797 23.4688 9.77345 23.4688 5.3672 23.4375C5.21457 23.3631 5.113 23.2459 5.06251 23.0859C5.03125 22.4766 5.03125 21.8672 5.06251 21.2578C5.13282 21.125 5.2344 21.0234 5.3672 20.9531C5.63237 20.9297 5.89801 20.9219 6.16407 20.9297C6.15625 20.4294 6.16407 19.9294 6.18751 19.4297C6.25482 19.2918 6.3564 19.198 6.4922 19.1484Z" fill="#B2AFAF"/>
</svg>
