<svg width="24" height="24" viewBox="0 0 24 24" fill="none" xmlns="http://www.w3.org/2000/svg">
<path opacity="0.873" fill-rule="evenodd" clip-rule="evenodd" d="M6.44532 5.22657C10.6953 5.21874 14.9454 5.22657 19.1953 5.25001C19.4109 5.32491 19.5437 5.47337 19.5938 5.69532C19.625 9.91407 19.625 14.1328 19.5938 18.3516C19.509 18.5613 19.3606 18.7097 19.1484 18.7969C15.4609 18.8281 11.7735 18.8281 8.08595 18.7969C7.98742 18.7156 7.97181 18.6219 8.03907 18.5156C11.7109 18.5 15.3828 18.4844 19.0547 18.4688C19.1218 18.447 19.1764 18.4079 19.2188 18.3516C19.2732 16.246 19.2967 14.1367 19.2891 12.0234C19.2967 9.91022 19.2732 7.80085 19.2188 5.69532C19.1797 5.65627 19.1406 5.61718 19.1016 5.57813C14.9141 5.54687 10.7266 5.54687 6.53907 5.57813C6.46646 5.63504 6.41181 5.70535 6.37501 5.78907C6.3594 6.38283 6.34375 6.97655 6.32814 7.57032C6.23439 7.6328 6.14064 7.6328 6.04689 7.57032C6.01562 6.94533 6.01562 6.3203 6.04689 5.69532C6.106 5.47243 6.23884 5.31619 6.44532 5.22657Z" fill="#B2AFAF"/>
<path opacity="0.836" fill-rule="evenodd" clip-rule="evenodd" d="M7.42967 6.35157C11.0234 6.34374 14.6172 6.35157 18.2109 6.37501C18.2946 6.4118 18.365 6.46646 18.4219 6.53907C18.4761 8.35665 18.4996 10.1769 18.4922 12C18.4994 13.8381 18.476 15.674 18.4219 17.5078C18.3828 17.5469 18.3437 17.586 18.3047 17.625C14.8828 17.6563 11.4609 17.6563 8.03905 17.625C7.97178 17.5187 7.98739 17.425 8.08592 17.3438C11.4297 17.3203 14.7734 17.3125 18.1172 17.3203C18.1172 13.7734 18.1172 10.2266 18.1172 6.67969C14.5859 6.67969 11.0547 6.67969 7.52342 6.67969C7.53121 6.96137 7.52338 7.24262 7.49999 7.52344C7.41777 7.60548 7.31619 7.63674 7.1953 7.61719C7.18752 7.25748 7.1953 6.89808 7.21874 6.53907C7.28422 6.46548 7.35453 6.40294 7.42967 6.35157Z" fill="#B2AFAF"/>
<path opacity="0.953" fill-rule="evenodd" clip-rule="evenodd" d="M17.4609 7.14853C17.675 7.12898 17.7453 7.22273 17.6718 7.42978C17.3657 7.75157 17.0454 8.05626 16.7109 8.34384C16.4017 8.27156 16.1126 8.13871 15.8437 7.9454C15.5295 8.84099 15.2248 9.7394 14.9296 10.6407C14.9284 10.7645 14.9909 10.8269 15.1171 10.8282C15.9748 10.9542 16.8264 11.1027 17.6718 11.2735C17.7066 11.3645 17.6988 11.4504 17.6484 11.5313C16.7944 11.9037 15.935 12.263 15.0702 12.6095C15.0091 12.6472 14.9779 12.7019 14.9765 12.7735C15.3019 13.734 15.6456 14.6871 16.0077 15.6329C16.3491 15.4566 16.7085 15.3472 17.0859 15.3048C17.1439 15.7424 17.2064 16.1799 17.2734 16.6173C17.2432 16.775 17.1494 16.8297 16.9921 16.7813C16.9046 16.42 16.8343 16.0528 16.7812 15.6798C16.4591 15.8393 16.1231 15.9409 15.7734 15.9845C15.664 15.7188 15.5546 15.4532 15.4452 15.1876C14.8313 14.783 14.2141 14.3846 13.5937 13.9923C13.4849 14.0385 13.4068 14.1167 13.3593 14.2267C12.8574 15.0821 12.3496 15.9337 11.8359 16.7813C11.7304 16.8218 11.6445 16.7984 11.5781 16.711C11.5702 16.5704 11.5624 16.4298 11.5546 16.2892C11.6117 15.3877 11.6117 14.4892 11.5546 13.5938C11.4921 13.5626 11.4296 13.5626 11.3671 13.5938C11.0077 13.8517 10.6484 14.1095 10.289 14.3673C10.4785 14.5567 10.6504 14.7598 10.8046 14.9767C10.785 15.0316 10.7538 15.0785 10.7109 15.1173C10.1419 15.2927 9.57157 15.4646 8.99993 15.6329C8.84482 15.5771 8.80573 15.4755 8.88274 15.3282C9.33509 15.1748 9.78823 15.0264 10.2421 14.8829C10.1335 14.7509 10.0163 14.6258 9.89056 14.5079C9.82957 14.4205 9.81391 14.3267 9.84368 14.2267C10.2577 13.9376 10.6718 13.6485 11.0859 13.3595C10.2092 13.3972 9.33415 13.4676 8.46087 13.5704C8.25766 13.4998 8.2264 13.3826 8.36712 13.2188C9.18391 12.6972 9.98862 12.1582 10.7812 11.6017C10.8124 11.5392 10.8124 11.4766 10.7812 11.4142C10.4943 11.0573 10.2365 10.6823 10.0077 10.2892C10.0128 10.245 10.0284 10.2059 10.0546 10.172C10.528 10.1804 10.9968 10.2351 11.4609 10.336C11.5266 10.3189 11.5735 10.2798 11.6015 10.2188C11.6322 9.27937 11.6635 8.34187 11.6952 7.40634C11.7862 7.37151 11.8721 7.37934 11.9531 7.42978C12.379 8.17223 12.7931 8.92223 13.1952 9.67978C13.2341 9.72267 13.2809 9.75389 13.3359 9.77353C14.1072 9.07251 14.8572 8.34595 15.5859 7.59384C15.6327 7.5704 15.6796 7.54696 15.7265 7.52353C16.0268 7.6619 16.3159 7.81813 16.5937 7.99228C16.8778 7.70024 17.1669 7.41899 17.4609 7.14853Z" fill="#B2AFAF"/>
<path opacity="0.942" fill-rule="evenodd" clip-rule="evenodd" d="M4.85163 8.17969C6.27358 8.17187 7.69544 8.17969 9.11725 8.20313C9.18433 8.22493 9.23899 8.26402 9.28132 8.32032C9.3349 8.77679 9.35833 9.23776 9.35163 9.70313C9.35833 10.1685 9.3349 10.6295 9.28132 11.0859C9.23899 11.1422 9.18433 11.1813 9.11725 11.2031C8.63313 11.2266 8.14877 11.2343 7.66413 11.2266C7.67196 14.0704 7.66413 16.9141 7.64069 19.7578C7.61707 19.9228 7.53115 20.04 7.38288 20.1094C6.78911 20.1406 6.1954 20.1406 5.60163 20.1094C5.46438 20.0503 5.37846 19.9487 5.34382 19.8047C5.32038 16.9454 5.31255 14.086 5.32038 11.2266C5.19761 11.2391 5.08043 11.2235 4.96882 11.1797C4.95321 10.4766 4.93755 9.77344 4.92194 9.07032C4.8438 8.9453 4.76571 8.9453 4.68757 9.07032C4.66413 9.71077 4.65632 10.3514 4.66413 10.9922C4.58448 10.9997 4.50635 10.9919 4.42975 10.9688C3.98505 10.6136 3.53192 10.2699 3.07038 9.93751C2.87614 9.75099 2.89177 9.57915 3.11726 9.42188C3.6918 8.99466 4.26992 8.58062 4.85163 8.17969ZM5.69538 11.2266C6.24635 11.1969 6.78541 11.2282 7.31257 11.3203C7.34383 14.1016 7.34383 16.8828 7.31257 19.6641C7.29504 19.707 7.2716 19.7461 7.24226 19.7813C6.74224 19.8125 6.24227 19.8125 5.74225 19.7813C5.71882 19.7578 5.69538 19.7344 5.67194 19.7109C5.63308 16.8795 5.64091 14.0514 5.69538 11.2266Z" fill="#B2AFAF"/>
</svg>
