<svg width="24" height="24" viewBox="0 0 24 24" fill="none" xmlns="http://www.w3.org/2000/svg">
<path opacity="0.914" fill-rule="evenodd" clip-rule="evenodd" d="M11.8828 1.14851C12.0481 1.14129 12.1809 1.20379 12.2813 1.33601C12.3125 2.05476 12.3125 2.77351 12.2813 3.49226C12.0782 3.74226 11.875 3.74226 11.6719 3.49226C11.6406 2.77351 11.6406 2.05476 11.6719 1.33601C11.7374 1.2624 11.8077 1.1999 11.8828 1.14851Z" fill="#B2AFAF"/>
<path opacity="0.893" fill-rule="evenodd" clip-rule="evenodd" d="M5.74211 2.78911C5.87429 2.77728 5.99926 2.80071 6.11711 2.85942C6.47082 3.4339 6.80678 4.01984 7.12492 4.61724C7.12211 5.02524 6.93461 5.1346 6.56242 4.94536C6.2499 4.41411 5.93743 3.88286 5.62492 3.35161C5.51692 3.13389 5.55597 2.94639 5.74211 2.78911Z" fill="#B2AFAF"/>
<path opacity="0.893" fill-rule="evenodd" clip-rule="evenodd" d="M17.9297 2.78907C18.2628 2.77057 18.4112 2.92682 18.375 3.25782C18.0469 3.82032 17.7188 4.38282 17.3906 4.94532C17.0184 5.13455 16.8309 5.02519 16.8281 4.61719C17.1501 3.97203 17.5172 3.36265 17.9297 2.78907Z" fill="#B2AFAF"/>
<path opacity="0.987" fill-rule="evenodd" clip-rule="evenodd" d="M10.9922 7.19526C13.1576 6.89353 14.9935 7.51856 16.5 9.07026C17.237 9.95203 17.6745 10.9676 17.8125 12.1171C17.8359 14.0858 17.8438 16.0546 17.8359 18.0234C13.9297 18.0234 10.0234 18.0234 6.11719 18.0234C6.10937 16.0546 6.11719 14.0858 6.14063 12.1171C6.45193 9.9389 7.61602 8.41546 9.63282 7.54682C10.0826 7.39148 10.5357 7.27429 10.9922 7.19526ZM11.2734 9.11714C11.4953 9.10415 11.7141 9.11981 11.9297 9.16401C12.1225 9.3659 12.0912 9.52996 11.8359 9.6562C10.0206 9.79968 8.91905 10.7606 8.53126 12.539C8.2779 12.7041 8.11383 12.6416 8.03907 12.3515C8.41637 10.568 9.49449 9.48984 11.2734 9.11714ZM8.22657 13.8515C8.53754 13.9109 8.62346 14.0828 8.48438 14.3671C8.24237 14.5004 8.0783 14.4301 7.99219 14.1562C8.0289 14.0185 8.10704 13.9169 8.22657 13.8515Z" fill="#B2AFAF"/>
<path opacity="0.891" fill-rule="evenodd" clip-rule="evenodd" d="M1.28909 7.24231C1.38412 7.23471 1.47787 7.24254 1.57034 7.26574C2.16793 7.59964 2.75386 7.9512 3.32815 8.32043C3.39984 8.6547 3.26703 8.81876 2.92971 8.81262C2.35159 8.48449 1.77346 8.15637 1.19534 7.82824C1.0518 7.60353 1.08305 7.40824 1.28909 7.24231Z" fill="#B2AFAF"/>
<path opacity="0.894" fill-rule="evenodd" clip-rule="evenodd" d="M22.3826 7.24219C22.8068 7.25161 22.9318 7.44694 22.7576 7.82813C22.1795 8.15625 21.6014 8.48438 21.0233 8.8125C20.6699 8.83373 20.5371 8.66967 20.6248 8.32031C21.2098 7.95389 21.7958 7.5945 22.3826 7.24219Z" fill="#B2AFAF"/>
<path opacity="0.913" fill-rule="evenodd" clip-rule="evenodd" d="M0.586012 13.3359C1.25807 13.3281 1.92994 13.3359 2.60164 13.3594C2.73519 13.4793 2.77425 13.6278 2.71882 13.8047C2.69539 13.8906 2.6407 13.9453 2.55476 13.9688C1.89851 14 1.24226 14 0.586012 13.9688C0.339168 13.7557 0.339168 13.5448 0.586012 13.3359Z" fill="#B2AFAF"/>
<path opacity="0.913" fill-rule="evenodd" clip-rule="evenodd" d="M21.3514 13.3359C22.0235 13.3281 22.6954 13.3359 23.3671 13.3594C23.5369 13.4607 23.5916 13.6091 23.5311 13.8047C23.4921 13.875 23.4374 13.9297 23.3671 13.9688C22.7108 14 22.0546 14 21.3983 13.9688C21.2243 13.851 21.1697 13.6869 21.2342 13.4766C21.2832 13.4356 21.3223 13.3888 21.3514 13.3359Z" fill="#B2AFAF"/>
<path opacity="0.965" fill-rule="evenodd" clip-rule="evenodd" d="M5.55462 18.5859C9.8359 18.5781 14.1171 18.5859 18.3984 18.6094C18.6956 18.6879 18.9065 18.8676 19.0312 19.1484C19.0939 19.4731 19.1174 19.8012 19.1015 20.1328C14.3515 20.1328 9.60148 20.1328 4.8515 20.1328C4.8356 19.8012 4.85904 19.4731 4.92181 19.1484C5.0546 18.8669 5.26554 18.6794 5.55462 18.5859Z" fill="#B2AFAF"/>
<path opacity="0.944" fill-rule="evenodd" clip-rule="evenodd" d="M4.38281 20.6953C9.44535 20.6875 14.5079 20.6953 19.5703 20.7188C19.8675 20.7973 20.0785 20.9769 20.2031 21.2578C20.2702 21.7698 20.2936 22.2854 20.2734 22.8047C14.7422 22.8047 9.21093 22.8047 3.67968 22.8047C3.67188 22.3357 3.67969 21.8669 3.70312 21.3984C3.81332 21.0461 4.03988 20.8118 4.38281 20.6953ZM8.97656 21.4453C9.30506 21.4375 9.63318 21.4453 9.96093 21.4688C10.1852 21.6216 10.2009 21.7935 10.0078 21.9844C9.66407 22.0156 9.32029 22.0156 8.97656 21.9844C8.79164 21.8048 8.79164 21.6251 8.97656 21.4453ZM11.4141 21.4453C13.9141 21.4375 16.4141 21.4453 18.9141 21.4688C19.1444 21.6174 19.16 21.7892 18.9609 21.9844C16.4453 22.0156 13.9297 22.0156 11.4141 21.9844C11.1679 21.805 11.1679 21.6253 11.4141 21.4453Z" fill="#B2AFAF"/>
</svg>
