<svg width="16" height="17" viewBox="0 0 16 17" fill="none" xmlns="http://www.w3.org/2000/svg">
<g clip-path="url(#clip0_1043_2197)">
<path d="M8.00033 8.83337C7.38149 8.83337 6.78799 9.07921 6.35041 9.51679C5.91282 9.95438 5.66699 10.5479 5.66699 11.1667C5.66699 11.7855 5.91282 12.379 6.35041 12.8166C6.78799 13.2542 7.38149 13.5 8.00033 13.5C8.61916 13.5 9.21266 13.2542 9.65024 12.8166C10.0878 12.379 10.3337 11.7855 10.3337 11.1667C10.3337 10.5479 10.0878 9.95438 9.65024 9.51679C9.21266 9.07921 8.61916 8.83337 8.00033 8.83337ZM7.00033 11.1667C7.00033 10.9015 7.10568 10.6471 7.29322 10.4596C7.48075 10.2721 7.73511 10.1667 8.00033 10.1667C8.26554 10.1667 8.5199 10.2721 8.70743 10.4596C8.89497 10.6471 9.00033 10.9015 9.00033 11.1667C9.00033 11.4319 8.89497 11.6863 8.70743 11.8738C8.5199 12.0613 8.26554 12.1667 8.00033 12.1667C7.73511 12.1667 7.48075 12.0613 7.29322 11.8738C7.10568 11.6863 7.00033 11.4319 7.00033 11.1667Z" fill="#9F9F9F"/>
<path d="M11.684 3.91066L9.56467 0.939331L1.772 7.16466L1.34 7.16V7.16666H1V15.1667H15V7.16666H14.3587L13.0827 3.434L11.684 3.91066ZM12.95 7.16666H6.26467L11.244 5.46933L12.2587 5.14466L12.95 7.16666ZM10.3667 4.36L5.22667 6.112L9.29733 2.86L10.3667 4.36ZM2.33333 12.6127V9.71933C2.61478 9.62 2.87043 9.45893 3.08154 9.24794C3.29264 9.03696 3.45385 8.78139 3.55333 8.5H12.4467C12.5461 8.78152 12.7072 9.03721 12.9183 9.24832C13.1295 9.45943 13.3851 9.6206 13.6667 9.72V12.6133C13.3851 12.7127 13.1295 12.8739 12.9183 13.085C12.7072 13.2961 12.5461 13.5518 12.4467 13.8333H3.55467C3.45479 13.5518 3.29331 13.2961 3.08201 13.0849C2.87072 12.8737 2.61493 12.7124 2.33333 12.6127Z" fill="#9F9F9F"/>
</g>
<defs>
<clipPath id="clip0_1043_2197">
<rect width="16" height="16" fill="white" transform="translate(0 0.5)"/>
</clipPath>
</defs>
</svg>
