<svg width="50" height="50" viewBox="0 0 50 50" fill="none" xmlns="http://www.w3.org/2000/svg">
<path opacity="0.973" fill-rule="evenodd" clip-rule="evenodd" d="M22.412 1.41602C30.6696 1.57978 36.9359 5.16051 41.2108 12.1582C42.9766 15.3475 43.8718 18.7654 43.8964 22.4121C42.3014 22.4121 40.7062 22.4121 39.1112 22.4121C38.8774 16.1307 36.078 11.3943 30.7128 8.20312C25.3544 5.48349 20.0484 5.58114 14.7948 8.49609C9.12692 12.166 6.53903 17.3906 7.03114 24.1699C7.92828 30.209 11.1347 34.5221 16.6503 37.1094C19.1896 38.1565 21.8264 38.5797 24.5604 38.3789C25.8951 39.7136 27.2297 41.0481 28.5644 42.3828C20.9139 44.2951 14.2081 42.5698 8.44716 37.207C2.73896 31.253 0.932313 24.2706 3.02724 16.2598C5.37069 9.16371 10.107 4.49249 17.2362 2.24609C18.9477 1.79025 20.673 1.51355 22.412 1.41602Z" fill="#890101"/>
<path opacity="0.967" fill-rule="evenodd" clip-rule="evenodd" d="M21.9239 9.81443C22.7384 9.79821 23.5522 9.81443 24.3653 9.86325C24.4142 9.91208 24.463 9.96091 24.5118 10.0097C24.5443 10.8886 24.577 11.7676 24.6095 12.6465C26.2994 12.8568 27.7643 13.5404 29.004 14.6972C29.0203 14.7786 29.0365 14.86 29.0528 14.9414C28.6862 15.7559 28.2793 16.5535 27.8321 17.334C27.7262 17.4114 27.6122 17.4765 27.4903 17.5293C26.7932 17.099 26.0771 16.6922 25.3419 16.3086C23.9021 15.6708 22.5023 15.7359 21.1427 16.5039C20.379 17.1968 20.2325 17.9944 20.7032 18.8965C21.0207 19.2795 21.395 19.5886 21.8263 19.8242C22.9758 20.3664 24.1477 20.8547 25.3419 21.289C26.8081 21.7801 27.9963 22.6427 28.9064 23.8769C30.2883 27.2461 29.3932 29.8013 26.2208 31.5429C25.7209 31.7421 25.2164 31.9211 24.7071 32.08C24.686 32.9745 24.6046 33.8697 24.463 34.7656C23.5823 34.8468 22.7034 34.8305 21.8263 34.7168C21.7476 33.8426 21.6987 32.9636 21.6798 32.08C19.8847 31.6951 18.2733 30.9301 16.8458 29.7851C16.343 29.3682 16.3267 28.9288 16.797 28.4668C17.1995 27.9012 17.639 27.3641 18.1153 26.8554C18.3107 26.7903 18.506 26.7903 18.7013 26.8554C20.2188 28.2836 22.0092 28.8695 24.0724 28.6133C25.351 28.3128 25.9532 27.5152 25.879 26.2207C25.5095 25.422 24.9073 24.8524 24.0724 24.5117C22.3067 23.8801 20.6141 23.0989 18.9942 22.1679C16.6349 20.2715 16.1629 17.9765 17.5782 15.2832C18.6403 13.9379 20.0075 13.059 21.6798 12.6465C21.7123 11.7676 21.7449 10.8886 21.7774 10.0097C21.8475 9.95661 21.8963 9.89148 21.9239 9.81443Z" fill="#890101"/>
<path opacity="0.987" fill-rule="evenodd" clip-rule="evenodd" d="M32.4705 24.3652C36.084 24.3489 39.6973 24.3652 43.3103 24.4141C43.587 24.4954 43.7661 24.6745 43.8474 24.9512C43.88 28.89 43.9126 32.8288 43.9451 36.7676C43.9753 36.8912 44.0241 37.0052 44.0916 37.1094C45.2309 37.1419 46.3702 37.1745 47.5096 37.207C47.8297 37.4305 47.8785 37.7071 47.656 38.0371C44.6612 41.3574 41.6665 44.6777 38.6717 47.9981C38.2779 48.5869 37.8547 48.6194 37.4021 48.0957C34.4073 44.7103 31.4126 41.3249 28.4178 37.9395C28.3256 37.6614 28.3744 37.4173 28.5642 37.207C29.643 37.1887 30.7172 37.1399 31.7869 37.0606C31.8682 33.0896 31.9171 29.1183 31.9334 25.1465C31.9812 24.7904 32.1602 24.53 32.4705 24.3652Z" fill="#133769"/>
</svg>
