<svg width="40" height="40" viewBox="0 0 40 40" fill="none" xmlns="http://www.w3.org/2000/svg">
<path opacity="0.988" fill-rule="evenodd" clip-rule="evenodd" d="M4.57031 1.99219C12.6173 1.97917 20.6641 1.99219 28.7109 2.03125C30.002 2.25463 30.8223 2.99682 31.1719 4.25781C31.1979 10.1953 31.224 16.1328 31.25 22.0703C34.8438 22.8516 37.0312 25.0391 37.8125 28.6328C38.2357 32.592 36.6862 35.4697 33.1641 37.2656C32.3377 37.6089 31.4784 37.8173 30.5859 37.8906C21.9141 37.9427 13.2422 37.9427 4.57031 37.8906C3.15104 37.6172 2.30469 36.7709 2.03125 35.3516C1.97917 25.0912 1.97917 14.8307 2.03125 4.57031C2.31877 3.15004 3.16513 2.29067 4.57031 1.99219ZM9.10156 8.71094C14.1277 8.69789 19.1538 8.71094 24.1797 8.75C25.1969 9.0007 25.5224 9.61266 25.1562 10.5859C24.9108 10.9716 24.5592 11.167 24.1016 11.1719C19.1016 11.224 14.1016 11.224 9.10156 11.1719C7.97289 10.8855 7.67344 10.2215 8.20313 9.17969C8.46156 8.92695 8.76102 8.7707 9.10156 8.71094ZM8.78906 15.4297C14.0235 15.4166 19.2579 15.4297 24.4922 15.4688C25.3491 15.9042 25.5445 16.5423 25.0781 17.3828C24.873 17.5962 24.6255 17.7394 24.3359 17.8125C19.1797 17.8646 14.0234 17.8646 8.86719 17.8125C7.98008 17.4577 7.73266 16.8457 8.125 15.9766C8.31375 15.7482 8.53516 15.5659 8.78906 15.4297ZM8.86719 22.0703C12.6433 22.0573 16.4194 22.0703 20.1953 22.1094C20.9913 22.3606 21.2909 22.8945 21.0938 23.7109C20.9432 24.0959 20.6698 24.3433 20.2734 24.4531C16.4453 24.5052 12.6172 24.5052 8.78906 24.4531C7.96094 24.06 7.73959 23.448 8.125 22.6172C8.32258 22.3527 8.57 22.1705 8.86719 22.0703ZM29.4141 24.5703C31.8725 24.5161 33.6823 25.5577 34.8438 27.6953C35.8125 30.2395 35.2787 32.414 33.2422 34.2188C30.678 35.8825 28.2692 35.6872 26.0156 33.6328C24.0886 31.1845 24.0886 28.7366 26.0156 26.2891C26.958 25.3296 28.0909 24.7567 29.4141 24.5703ZM9.10156 28.7109C12.1746 28.6979 15.2475 28.7109 18.3203 28.75C19.1819 28.8976 19.5595 29.4054 19.4531 30.2734C19.2847 30.8322 18.907 31.1316 18.3203 31.1719C15.2474 31.224 12.1745 31.224 9.10156 31.1719C7.97289 30.8855 7.67344 30.2215 8.20313 29.1797C8.46156 28.927 8.76102 28.7707 9.10156 28.7109Z" fill="#890101"/>
<path opacity="0.956" fill-rule="evenodd" clip-rule="evenodd" d="M31.9992 27.2881C33.1354 27.3585 33.5457 27.9445 33.2299 29.0463C32.1398 30.2302 31.0028 31.3672 29.8189 32.4573C29.3617 32.7003 28.9163 32.6768 28.4827 32.387C27.9083 31.8126 27.334 31.2383 26.7596 30.6639C26.3239 29.6598 26.6404 29.0269 27.709 28.765C27.9572 28.8076 28.1916 28.8896 28.4123 29.0112C28.6819 29.2807 28.9516 29.5504 29.2211 29.82C30.0065 29.0346 30.7918 28.2493 31.5772 27.4639C31.7257 27.4045 31.8663 27.3459 31.9992 27.2881Z" fill="#133769"/>
</svg>
