<svg width="24" height="24" viewBox="0 0 24 24" fill="none" xmlns="http://www.w3.org/2000/svg">
<g clip-path="url(#clip0_309_21960)">
<path opacity="0.998" fill-rule="evenodd" clip-rule="evenodd" d="M0.398438 -0.0234375C8.1172 -0.0234375 15.8359 -0.0234375 23.5547 -0.0234375C23.6244 0.0376665 23.7025 0.0923541 23.7891 0.140625C23.8452 0.235094 23.9077 0.321031 23.9766 0.398438C23.9766 1.05469 23.9766 1.71094 23.9766 2.36719C23.8915 2.55369 23.7509 2.68651 23.5547 2.76562C15.8359 2.79688 8.1172 2.79688 0.398438 2.76562C0.202257 2.68651 0.0616317 2.55369 -0.0234375 2.36719C-0.0234375 1.71094 -0.0234375 1.05469 -0.0234375 0.398438C0.0376665 0.328738 0.0923541 0.250613 0.140625 0.164062C0.235094 0.107973 0.321031 0.0454726 0.398438 -0.0234375Z" fill="#B2AFAF"/>
<path fill-rule="evenodd" clip-rule="evenodd" d="M8.92969 4.19531C10.9609 4.19531 12.9922 4.19531 15.0234 4.19531C15.0234 4.66406 15.0234 5.13281 15.0234 5.60156C12.9922 5.60156 10.9609 5.60156 8.92969 5.60156C8.92969 5.13281 8.92969 4.66406 8.92969 4.19531Z" fill="#B2AFAF"/>
<path opacity="0.994" fill-rule="evenodd" clip-rule="evenodd" d="M6.49215 7.00782C10.1484 6.99999 13.8047 7.00782 17.4609 7.03126C17.8375 7.12196 18.1266 7.3329 18.3281 7.66407C18.6051 8.21298 18.7457 8.79108 18.75 9.39844C18.6796 9.59377 18.5469 9.72657 18.3515 9.79688C14.1015 9.82815 9.85154 9.82815 5.60152 9.79688C5.20707 9.59307 5.07427 9.27277 5.20309 8.83594C5.32946 8.37835 5.50135 7.94082 5.71871 7.52344C5.93584 7.28157 6.19365 7.10968 6.49215 7.00782Z" fill="#B2AFAF"/>
<path opacity="0.949" fill-rule="evenodd" clip-rule="evenodd" d="M6.07032 11.3202C6.82754 11.2259 7.14784 11.554 7.03126 12.3046C6.69128 12.8751 6.36315 13.4532 6.04689 14.039C5.75181 14.3865 5.40025 14.4568 4.9922 14.2499C4.729 14.0171 4.64306 13.728 4.73439 13.3827C5.05065 12.797 5.37878 12.2189 5.71876 11.6484C5.81322 11.5119 5.9304 11.4025 6.07032 11.3202Z" fill="#B2AFAF"/>
<path opacity="0.973" fill-rule="evenodd" clip-rule="evenodd" d="M11.6953 11.3203C12.1323 11.2148 12.4526 11.3555 12.6563 11.7421C12.6875 12.5546 12.6875 13.3671 12.6563 14.1796C12.4524 14.5741 12.1322 14.7069 11.6953 14.5781C11.5 14.5078 11.3672 14.375 11.2969 14.1796C11.2656 13.3671 11.2656 12.5546 11.2969 11.7421C11.376 11.546 11.5088 11.4053 11.6953 11.3203Z" fill="#B2AFAF"/>
<path opacity="0.949" fill-rule="evenodd" clip-rule="evenodd" d="M17.3203 11.3202C17.6235 11.2739 17.8969 11.3364 18.1406 11.5077C18.5187 12.1206 18.8781 12.7456 19.2187 13.3827C19.2769 14.2153 18.9098 14.5043 18.1171 14.2499C18.0468 14.1796 17.9765 14.1093 17.9062 14.039C17.5899 13.4532 17.2618 12.8751 16.9218 12.3046C16.7994 11.8631 16.9322 11.5349 17.3203 11.3202Z" fill="#B2AFAF"/>
<path opacity="0.946" fill-rule="evenodd" clip-rule="evenodd" d="M8.83594 12.9139C9.3608 12.8919 9.65766 13.1418 9.72656 13.6639C9.56128 14.3551 9.38161 15.0426 9.1875 15.7264C8.96325 16.1346 8.6273 16.2675 8.17969 16.1249C7.9268 15.9712 7.78617 15.7446 7.75781 15.4452C7.93852 14.7223 8.13384 14.0036 8.34375 13.2889C8.47528 13.118 8.63934 12.993 8.83594 12.9139Z" fill="#B2AFAF"/>
<path opacity="0.946" fill-rule="evenodd" clip-rule="evenodd" d="M14.8359 12.9141C15.1669 12.896 15.4248 13.021 15.6093 13.2891C15.8193 14.0037 16.0146 14.7225 16.1953 15.4453C16.1267 15.9754 15.8298 16.2175 15.3047 16.1719C15.1309 16.128 14.9824 16.0421 14.8593 15.9141C14.6346 15.2183 14.4315 14.5152 14.25 13.8047C14.2127 13.3467 14.408 13.0498 14.8359 12.9141Z" fill="#B2AFAF"/>
<path opacity="0.946" fill-rule="evenodd" clip-rule="evenodd" d="M3.82031 15.3516C4.49995 15.3359 4.78903 15.664 4.6875 16.336C4.35562 16.953 4.01187 17.5623 3.65625 18.1641C3.26563 18.5391 2.875 18.5391 2.48438 18.1641C2.37074 17.9265 2.33949 17.6765 2.39063 17.4141C2.73437 16.8203 3.07813 16.2266 3.42188 15.6329C3.54709 15.5203 3.6799 15.4265 3.82031 15.3516Z" fill="#B2AFAF"/>
<path opacity="0.947" fill-rule="evenodd" clip-rule="evenodd" d="M19.8047 15.3517C20.0951 15.3282 20.3373 15.422 20.5313 15.6329C20.8594 16.1954 21.1876 16.7579 21.5157 17.3204C21.734 18.034 21.4762 18.4012 20.7422 18.422C20.5685 18.3781 20.42 18.2922 20.2969 18.1642C19.9413 17.5624 19.5975 16.953 19.2657 16.336C19.1555 15.837 19.3351 15.5088 19.8047 15.3517Z" fill="#B2AFAF"/>
<path opacity="0.973" fill-rule="evenodd" clip-rule="evenodd" d="M11.6953 16.0078C12.1323 15.9023 12.4526 16.043 12.6563 16.4296C12.6875 17.2421 12.6875 18.0546 12.6563 18.8671C12.4524 19.2616 12.1322 19.3944 11.6953 19.2656C11.5 19.1953 11.3672 19.0625 11.2969 18.8671C11.2656 18.0546 11.2656 17.2421 11.2969 16.4296C11.376 16.2335 11.5088 16.0928 11.6953 16.0078Z" fill="#B2AFAF"/>
<path opacity="0.949" fill-rule="evenodd" clip-rule="evenodd" d="M7.57027 17.4608C8.2238 17.4034 8.52849 17.7003 8.48434 18.3515C8.30616 19.0266 8.11866 19.6984 7.92184 20.3671C7.69562 20.6785 7.39093 20.7801 7.00777 20.6718C6.61332 20.468 6.48052 20.1477 6.60934 19.7108C6.77171 19.0831 6.94355 18.4581 7.12496 17.8358C7.23568 17.6603 7.38409 17.5353 7.57027 17.4608Z" fill="#B2AFAF"/>
<path opacity="0.949" fill-rule="evenodd" clip-rule="evenodd" d="M15.9609 17.4608C16.4715 17.4071 16.7917 17.6259 16.9219 18.1171C17.1001 18.7361 17.2485 19.3611 17.3672 19.9921C17.3705 20.3089 17.2299 20.5354 16.9453 20.6718C16.5085 20.8006 16.1882 20.6678 15.9844 20.2733C15.7863 19.5825 15.6066 18.8872 15.4453 18.1874C15.4864 17.8431 15.6583 17.601 15.9609 17.4608Z" fill="#B2AFAF"/>
<path opacity="0.951" fill-rule="evenodd" clip-rule="evenodd" d="M1.42971 19.4296C2.13325 19.3909 2.43793 19.719 2.34378 20.414C2.01565 20.9921 1.68753 21.5702 1.3594 22.1483C0.937525 22.5858 0.51565 22.5858 0.0937751 22.1483C0.0245675 21.9338 0.00894251 21.7151 0.0469001 21.4921C0.375025 20.914 0.70315 20.3358 1.03128 19.7577C1.14571 19.6192 1.27852 19.5099 1.42971 19.4296Z" fill="#B2AFAF"/>
<path opacity="0.951" fill-rule="evenodd" clip-rule="evenodd" d="M22.0546 19.4296C22.4121 19.3624 22.7011 19.4717 22.9218 19.7577C23.25 20.3358 23.5781 20.914 23.9062 21.4921C24.0341 22.074 23.8075 22.4021 23.2265 22.4765C23.0972 22.4745 22.9722 22.4511 22.8515 22.4062C22.7656 22.3202 22.6796 22.2343 22.5937 22.1483C22.2656 21.5702 21.9375 20.9921 21.6093 20.414C21.4926 19.9575 21.6411 19.6293 22.0546 19.4296Z" fill="#B2AFAF"/>
<path opacity="0.973" fill-rule="evenodd" clip-rule="evenodd" d="M12.2578 23.9767C12.0703 23.9767 11.8828 23.9767 11.6953 23.9767C11.5088 23.8916 11.376 23.751 11.2969 23.5548C11.2656 22.7423 11.2656 21.9298 11.2969 21.1173C11.5384 20.6966 11.8899 20.5794 12.3516 20.7657C12.4909 20.8485 12.5925 20.9656 12.6563 21.1173C12.6875 21.9298 12.6875 22.7423 12.6563 23.5548C12.5771 23.751 12.4443 23.8916 12.2578 23.9767Z" fill="#B2AFAF"/>
</g>
<defs>
<clipPath id="clip0_309_21960">
<rect width="24" height="24" fill="white"/>
</clipPath>
</defs>
</svg>
